<svg width="304" height="15" viewBox="0 0 304 15" fill="none" xmlns="http://www.w3.org/2000/svg">
	<path d="M302.854 7.85355C303.049 7.65829 303.049 7.34171 302.854 7.14645L299.672 3.96447C299.476 3.7692 299.16 3.7692 298.964 3.96447C298.769 4.15973 298.769 4.47631 298.964 4.67157L301.793 7.5L298.964 10.3284C298.769 10.5237 298.769 10.8403 298.964 11.0355C299.16 11.2308 299.476 11.2308 299.672 11.0355L302.854 7.85355ZM0.5 8H1.49342V7H0.5V8ZM3.48026 8H5.46711V7H3.48026V8ZM7.45395 8H9.44079V7H7.45395V8ZM11.4276 8H13.4145V7H11.4276V8ZM15.4013 8H17.3882V7H15.4013V8ZM19.375 8H21.3618V7H19.375V8ZM23.3487 8H25.3355V7H23.3487V8ZM27.3224 8H29.3092V7H27.3224V8ZM31.2961 8H33.2829V7H31.2961V8ZM35.2697 8H37.2566V7H35.2697V8ZM39.2434 8H41.2303V7H39.2434V8ZM43.2171 8H45.204V7H43.2171V8ZM47.1908 8H49.1776V7H47.1908V8ZM51.1645 8H53.1513V7H51.1645V8ZM55.1382 8H57.125V7H55.1382V8ZM59.1119 8H61.0987V7H59.1119V8ZM63.0855 8H65.0724V7H63.0855V8ZM67.0592 8H69.0461V7H67.0592V8ZM71.0329 8H73.0197V7H71.0329V8ZM75.0066 8H76.9934V7H75.0066V8ZM78.9803 8H80.9671V7H78.9803V8ZM82.9539 8H84.9408V7H82.9539V8ZM86.9276 8H88.9145V7H86.9276V8ZM90.9013 8H92.8881V7H90.9013V8ZM94.875 8H96.8618V7H94.875V8ZM98.8487 8H100.835V7H98.8487V8ZM102.822 8H104.809V7H102.822V8ZM106.796 8H108.783V7H106.796V8ZM110.77 8H112.757V7H110.77V8ZM114.743 8H116.73V7H114.743V8ZM118.717 8H120.704V7H118.717V8ZM122.691 8H124.678V7H122.691V8ZM126.664 8H128.651V7H126.664V8ZM130.638 8H132.625V7H130.638V8ZM134.612 8H136.599V7H134.612V8ZM138.585 8H140.572V7H138.585V8ZM142.559 8H144.546V7H142.559V8ZM146.533 8H148.52V7H146.533V8ZM150.507 8H152.493V7H150.507V8ZM154.48 8H156.467V7H154.48V8ZM158.454 8H160.441V7H158.454V8ZM162.428 8H164.414V7H162.428V8ZM166.401 8H168.388V7H166.401V8ZM170.375 8H172.362V7H170.375V8ZM174.349 8H176.336V7H174.349V8ZM178.322 8H180.309V7H178.322V8ZM182.296 8H184.283V7H182.296V8ZM186.27 8H188.257V7H186.27V8ZM190.243 8H192.23V7H190.243V8ZM194.217 8H196.204V7H194.217V8ZM198.191 8H200.178V7H198.191V8ZM202.165 8H204.151V7H202.165V8ZM206.138 8H208.125V7H206.138V8ZM210.112 8H212.099V7H210.112V8ZM214.086 8H216.073V7H214.086V8ZM218.059 8H220.046V7H218.059V8ZM222.033 8H224.02V7H222.033V8ZM226.007 8H227.994V7H226.007V8ZM229.98 8H231.967V7H229.98V8ZM233.954 8H235.941V7H233.954V8ZM237.928 8H239.915V7H237.928V8ZM241.902 8H243.888V7H241.902V8ZM245.875 8H247.862V7H245.875V8ZM249.849 8H251.836V7H249.849V8ZM253.823 8H255.809V7H253.823V8ZM257.796 8H259.783V7H257.796V8ZM261.77 8H263.757V7H261.77V8ZM265.744 8H267.731V7H265.744V8ZM269.717 8H271.704V7H269.717V8ZM273.691 8H275.678V7H273.691V8ZM277.665 8H279.652V7H277.665V8ZM281.638 8H283.625V7H281.638V8ZM285.612 8H287.599V7H285.612V8ZM289.586 8H291.573V7H289.586V8ZM293.56 8H295.546V7H293.56V8ZM297.533 8H299.52V7H297.533V8ZM301.507 8H302.5V7H301.507V8ZM303.207 8.20711C303.598 7.81658 303.598 7.18342 303.207 6.79289L296.843 0.428932C296.453 0.0384078 295.819 0.0384078 295.429 0.428932C295.038 0.819457 295.038 1.45262 295.429 1.84315L301.086 7.5L295.429 13.1569C295.038 13.5474 295.038 14.1805 295.429 14.5711C295.819 14.9616 296.453 14.9616 296.843 14.5711L303.207 8.20711ZM0.5 8.5H1.49342V6.5H0.5V8.5ZM3.48026 8.5H5.46711V6.5H3.48026V8.5ZM7.45395 8.5H9.44079V6.5H7.45395V8.5ZM11.4276 8.5H13.4145V6.5H11.4276V8.5ZM15.4013 8.5H17.3882V6.5H15.4013V8.5ZM19.375 8.5H21.3618V6.5H19.375V8.5ZM23.3487 8.5H25.3355V6.5H23.3487V8.5ZM27.3224 8.5H29.3092V6.5H27.3224V8.5ZM31.2961 8.5H33.2829V6.5H31.2961V8.5ZM35.2697 8.5H37.2566V6.5H35.2697V8.5ZM39.2434 8.5H41.2303V6.5H39.2434V8.5ZM43.2171 8.5H45.204V6.5H43.2171V8.5ZM47.1908 8.5H49.1776V6.5H47.1908V8.5ZM51.1645 8.5H53.1513V6.5H51.1645V8.5ZM55.1382 8.5H57.125V6.5H55.1382V8.5ZM59.1119 8.5H61.0987V6.5H59.1119V8.5ZM63.0855 8.5H65.0724V6.5H63.0855V8.5ZM67.0592 8.5H69.0461V6.5H67.0592V8.5ZM71.0329 8.5H73.0197V6.5H71.0329V8.5ZM75.0066 8.5H76.9934V6.5H75.0066V8.5ZM78.9803 8.5H80.9671V6.5H78.9803V8.5ZM82.9539 8.5H84.9408V6.5H82.9539V8.5ZM86.9276 8.5H88.9145V6.5H86.9276V8.5ZM90.9013 8.5H92.8881V6.5H90.9013V8.5ZM94.875 8.5H96.8618V6.5H94.875V8.5ZM98.8487 8.5H100.835V6.5H98.8487V8.5ZM102.822 8.5H104.809V6.5H102.822V8.5ZM106.796 8.5H108.783V6.5H106.796V8.5ZM110.77 8.5H112.757V6.5H110.77V8.5ZM114.743 8.5H116.73V6.5H114.743V8.5ZM118.717 8.5H120.704V6.5H118.717V8.5ZM122.691 8.5H124.678V6.5H122.691V8.5ZM126.664 8.5H128.651V6.5H126.664V8.5ZM130.638 8.5H132.625V6.5H130.638V8.5ZM134.612 8.5H136.599V6.5H134.612V8.5ZM138.585 8.5H140.572V6.5H138.585V8.5ZM142.559 8.5H144.546V6.5H142.559V8.5ZM146.533 8.5H148.52V6.5H146.533V8.5ZM150.507 8.5H152.493V6.5H150.507V8.5ZM154.48 8.5H156.467V6.5H154.48V8.5ZM158.454 8.5H160.441V6.5H158.454V8.5ZM162.428 8.5H164.414V6.5H162.428V8.5ZM166.401 8.5H168.388V6.5H166.401V8.5ZM170.375 8.5H172.362V6.5H170.375V8.5ZM174.349 8.5H176.336V6.5H174.349V8.5ZM178.322 8.5H180.309V6.5H178.322V8.5ZM182.296 8.5H184.283V6.5H182.296V8.5ZM186.27 8.5H188.257V6.5H186.27V8.5ZM190.243 8.5H192.23V6.5H190.243V8.5ZM194.217 8.5H196.204V6.5H194.217V8.5ZM198.191 8.5H200.178V6.5H198.191V8.5ZM202.165 8.5H204.151V6.5H202.165V8.5ZM206.138 8.5H208.125V6.5H206.138V8.5ZM210.112 8.5H212.099V6.5H210.112V8.5ZM214.086 8.5H216.073V6.5H214.086V8.5ZM218.059 8.5H220.046V6.5H218.059V8.5ZM222.033 8.5H224.02V6.5H222.033V8.5ZM226.007 8.5H227.994V6.5H226.007V8.5ZM229.98 8.5H231.967V6.5H229.98V8.5ZM233.954 8.5H235.941V6.5H233.954V8.5ZM237.928 8.5H239.915V6.5H237.928V8.5ZM241.902 8.5H243.888V6.5H241.902V8.5ZM245.875 8.5H247.862V6.5H245.875V8.5ZM249.849 8.5H251.836V6.5H249.849V8.5ZM253.823 8.5H255.809V6.5H253.823V8.5ZM257.796 8.5H259.783V6.5H257.796V8.5ZM261.77 8.5H263.757V6.5H261.77V8.5ZM265.744 8.5H267.731V6.5H265.744V8.5ZM269.717 8.5H271.704V6.5H269.717V8.5ZM273.691 8.5H275.678V6.5H273.691V8.5ZM277.665 8.5H279.652V6.5H277.665V8.5ZM281.638 8.5H283.625V6.5H281.638V8.5ZM285.612 8.5H287.599V6.5H285.612V8.5ZM289.586 8.5H291.573V6.5H289.586V8.5ZM293.56 8.5H295.546V6.5H293.56V8.5ZM297.533 8.5H299.52V6.5H297.533V8.5ZM301.507 8.5H302.5V6.5H301.507V8.5Z" fill="#26A17B" />
</svg>
