<?xml version="1.0" standalone="no"?>
<!DOCTYPE svg PUBLIC "-//W3C//DTD SVG 20010904//EN"
 "http://www.w3.org/TR/2001/REC-SVG-20010904/DTD/svg10.dtd">
<svg version="1.0" xmlns="http://www.w3.org/2000/svg"
 width="640.000000pt" height="640.000000pt" viewBox="0 0 640.000000 640.000000"
 preserveAspectRatio="xMidYMid meet">

<g transform="translate(0.000000,640.000000) scale(0.100000,-0.100000)"
fill="#000000" stroke="none">
<path d="M0 3200 l0 -3200 3200 0 3200 0 0 3200 0 3200 -3200 0 -3200 0 0
-3200z m4643 1623 c3 -5 -22 -53 -54 -108 -33 -55 -62 -107 -66 -115 -3 -8
-17 -30 -30 -47 l-24 -33 -709 0 -710 0 -27 -42 c-48 -76 -143 -248 -143 -258
0 -6 52 -10 138 -10 76 0 141 -3 144 -6 6 -5 -14 -43 -112 -211 l-54 -93 -152
0 -153 0 -19 28 c-11 15 -28 43 -39 62 -11 19 -43 77 -72 128 l-53 93 75 127
c41 70 85 147 99 172 65 117 168 293 179 306 10 12 143 14 895 14 485 0 885
-3 887 -7z m-918 -360 c-5 -16 -183 -330 -226 -401 -20 -34 -162 -281 -198
-345 -52 -92 -40 -87 -225 -87 -91 0 -167 4 -170 8 -6 10 -2 18 97 189 91 156
83 142 238 413 67 118 130 220 138 227 11 9 68 12 185 13 156 0 168 -1 161
-17z m277 -358 c78 -133 108 -191 108 -209 0 -7 -57 -112 -126 -232 -70 -121
-135 -235 -145 -254 -10 -19 -33 -57 -51 -85 l-33 -50 -880 -3 c-504 -1 -883
2 -888 7 -12 12 152 301 172 301 9 1 330 2 713 3 605 2 699 4 712 17 25 26
167 281 161 290 -3 5 -54 9 -113 9 -59 0 -119 0 -134 1 -19 0 -28 5 -28 16 0
16 130 244 158 277 14 16 32 17 165 15 l150 -3 59 -100z m-992 -882 c0 -5 -31
-62 -68 -128 l-67 -120 -178 -3 c-97 -1 -177 1 -177 4 0 9 61 119 108 197 l35
57 173 0 c96 0 174 -3 174 -7z m-201 -446 c24 -12 58 -39 75 -60 29 -37 31
-44 30 -120 0 -98 -19 -141 -87 -204 -64 -60 -119 -73 -293 -73 -79 0 -145 3
-147 8 -2 4 2 36 9 72 7 36 25 124 39 195 14 72 31 147 36 168 l10 37 142 0
c127 0 147 -3 186 -23z m605 -14 c-4 -21 -12 -41 -18 -45 -6 -4 -64 -8 -128
-8 -130 0 -123 3 -131 -70 -2 -25 -2 -25 103 -30 l105 -5 -2 -29 c-4 -56 -4
-56 -122 -56 -121 0 -113 5 -126 -72 l-6 -37 128 -3 128 -3 -2 -29 c-4 -58 2
-56 -198 -56 -141 0 -185 3 -185 13 0 6 20 111 45 232 25 121 45 223 45 228 0
4 83 7 185 7 l186 0 -7 -37z m466 17 c0 -10 -5 -31 -12 -45 -11 -25 -12 -25
-134 -25 -136 0 -126 6 -139 -77 l-7 -43 106 0 c57 0 108 -4 111 -10 3 -5 0
-28 -6 -50 l-12 -41 -106 2 c-120 2 -111 8 -134 -106 l-12 -60 -59 -3 c-57 -3
-58 -2 -53 20 3 13 25 121 48 241 l42 217 184 0 c175 0 183 -1 183 -20z m190
13 c0 -5 -11 -62 -25 -128 -14 -66 -30 -145 -36 -175 -6 -30 -16 -80 -23 -110
l-12 -55 -58 -3 c-57 -3 -58 -2 -52 20 3 13 9 41 12 63 3 22 9 51 14 65 4 14
21 94 36 178 l28 152 58 0 c32 0 58 -3 58 -7z m-2185 -607 c19 -8 35 -20 35
-26 0 -15 -30 -79 -40 -85 -3 -2 -28 2 -55 10 -62 19 -115 19 -143 -1 -46 -32
-27 -51 85 -85 84 -26 123 -64 123 -120 0 -143 -176 -215 -373 -152 -27 8 -51
21 -53 27 -3 7 7 33 21 58 l26 46 47 -20 c87 -39 207 -22 189 25 -3 8 -37 25
-76 37 -119 38 -151 68 -151 142 0 71 53 131 139 155 55 16 176 10 226 -11z
m2576 14 c29 -6 63 -17 76 -26 l24 -15 -23 -42 c-12 -23 -23 -43 -24 -45 -1
-2 -28 4 -59 14 -64 18 -129 14 -152 -9 -27 -27 -1 -51 80 -74 41 -13 89 -34
106 -49 27 -22 31 -32 31 -75 0 -90 -41 -136 -146 -164 -41 -11 -78 -14 -119
-9 -61 6 -165 40 -165 52 1 4 11 25 24 47 26 44 29 45 119 20 78 -22 142 -11
142 25 0 22 -10 28 -87 56 -48 17 -94 37 -102 43 -26 22 -38 74 -27 121 24
106 147 159 302 130z m-2307 -42 c-3 -24 -10 -60 -15 -81 -6 -20 -7 -42 -4
-47 3 -6 44 -10 90 -10 96 0 84 -12 108 110 l13 65 67 3 c57 2 67 0 67 -14 0
-18 -75 -389 -88 -439 -8 -28 -11 -30 -67 -33 -32 -2 -62 1 -66 5 -5 5 -2 40
6 78 23 112 28 105 -74 105 l-89 0 -13 -72 c-20 -119 -19 -118 -88 -118 -33 0
-62 4 -66 9 -3 6 1 43 9 83 8 40 16 84 19 98 19 105 58 284 63 291 3 5 34 9
70 9 l64 0 -6 -42z m773 -178 c70 -290 70 -264 2 -268 -63 -3 -89 12 -89 52 0
36 -18 44 -100 44 -105 1 -113 -2 -138 -47 -12 -21 -29 -42 -38 -45 -20 -8
-119 -8 -127 0 -6 6 30 67 181 299 133 206 113 186 190 183 l66 -3 53 -215z
m477 209 c47 -12 86 -40 106 -78 19 -37 15 -112 -9 -158 -20 -40 -67 -83 -90
-83 -19 0 -12 -28 23 -86 19 -32 33 -61 30 -66 -3 -4 -34 -8 -69 -8 l-64 0
-36 65 c-34 60 -39 65 -70 65 -33 0 -34 -1 -46 -57 -7 -32 -18 -61 -23 -65
-20 -14 -116 -9 -122 5 -3 8 15 115 41 239 25 124 45 228 45 232 0 10 238 7
284 -5z m538 -4 c99 -29 148 -96 148 -199 0 -125 -83 -227 -213 -262 -55 -15
-303 -20 -324 -6 -9 5 -7 29 7 97 9 50 27 135 38 190 11 55 23 118 27 140 4
22 9 43 11 47 9 14 256 9 306 -7z"/>
<path d="M2576 2702 c-7 -12 -56 -254 -56 -278 0 -18 91 -19 157 -3 117 30
169 183 88 259 -20 19 -39 24 -104 28 -50 3 -81 1 -85 -6z"/>
<path d="M2763 2028 c-13 -13 -23 -28 -23 -34 0 -5 -9 -20 -20 -34 -33 -42
-26 -51 33 -48 58 3 56 -1 40 91 l-8 49 -22 -24z"/>
<path d="M3232 2051 c-7 -21 -12 -53 -12 -71 l0 -32 60 4 c71 5 100 26 100 74
0 43 -30 64 -91 64 -45 0 -46 -1 -57 -39z"/>
<path d="M3757 2083 c-9 -15 -47 -203 -47 -235 0 -27 1 -28 53 -28 61 0 130
31 160 71 40 55 32 149 -15 178 -26 16 -143 27 -151 14z"/>
</g>
</svg>
