<svg width="161" height="15" viewBox="0 0 161 15" fill="none" xmlns="http://www.w3.org/2000/svg">
<path d="M159.854 7.85355C160.049 7.65829 160.049 7.34171 159.854 7.14645L156.672 3.96447C156.476 3.7692 156.16 3.7692 155.964 3.96447C155.769 4.15973 155.769 4.47631 155.964 4.67157L158.793 7.5L155.964 10.3284C155.769 10.5237 155.769 10.8403 155.964 11.0355C156.16 11.2308 156.476 11.2308 156.672 11.0355L159.854 7.85355ZM0.5 8H1.49375V7H0.5V8ZM3.48125 8H5.46875V7H3.48125V8ZM7.45625 8H9.44375V7H7.45625V8ZM11.4313 8H13.4188V7H11.4313V8ZM15.4063 8H17.3938V7H15.4063V8ZM19.3813 8H21.3687V7H19.3813V8ZM23.3562 8H25.3437V7H23.3562V8ZM27.3312 8H29.3187V7H27.3312V8ZM31.3062 8H33.2937V7H31.3062V8ZM35.2812 8H37.2687V7H35.2812V8ZM39.2562 8H41.2437V7H39.2562V8ZM43.2312 8H45.2187V7H43.2312V8ZM47.2062 8H49.1937V7H47.2062V8ZM51.1812 8H53.1687V7H51.1812V8ZM55.1562 8H57.1437V7H55.1562V8ZM59.1312 8H61.1187V7H59.1312V8ZM63.1062 8H65.0937V7H63.1062V8ZM67.0812 8H69.0687V7H67.0812V8ZM71.0562 8H73.0437V7H71.0562V8ZM75.0312 8H77.0188V7H75.0312V8ZM79.0063 8H80.9938V7H79.0063V8ZM82.9813 8H84.9688V7H82.9813V8ZM86.9563 8H88.9438V7H86.9563V8ZM90.9313 8H92.9188V7H90.9313V8ZM94.9063 8H96.8938V7H94.9063V8ZM98.8813 8H100.869V7H98.8813V8ZM102.856 8H104.844V7H102.856V8ZM106.831 8H108.819V7H106.831V8ZM110.806 8H112.794V7H110.806V8ZM114.781 8H116.769V7H114.781V8ZM118.756 8H120.744V7H118.756V8ZM122.731 8H124.719V7H122.731V8ZM126.706 8H128.694V7H126.706V8ZM130.681 8H132.669V7H130.681V8ZM134.656 8H136.644V7H134.656V8ZM138.631 8H140.619V7H138.631V8ZM142.606 8H144.594V7H142.606V8ZM146.581 8H148.569V7H146.581V8ZM150.556 8H152.544V7H150.556V8ZM154.531 8H156.519V7H154.531V8ZM158.506 8H159.5V7H158.506V8ZM160.207 8.20711C160.598 7.81658 160.598 7.18342 160.207 6.79289L153.843 0.428932C153.453 0.0384078 152.819 0.0384078 152.429 0.428932C152.038 0.819457 152.038 1.45262 152.429 1.84315L158.086 7.5L152.429 13.1569C152.038 13.5474 152.038 14.1805 152.429 14.5711C152.819 14.9616 153.453 14.9616 153.843 14.5711L160.207 8.20711ZM0.5 8.5H1.49375V6.5H0.5V8.5ZM3.48125 8.5H5.46875V6.5H3.48125V8.5ZM7.45625 8.5H9.44375V6.5H7.45625V8.5ZM11.4313 8.5H13.4188V6.5H11.4313V8.5ZM15.4063 8.5H17.3938V6.5H15.4063V8.5ZM19.3813 8.5H21.3687V6.5H19.3813V8.5ZM23.3562 8.5H25.3437V6.5H23.3562V8.5ZM27.3312 8.5H29.3187V6.5H27.3312V8.5ZM31.3062 8.5H33.2937V6.5H31.3062V8.5ZM35.2812 8.5H37.2687V6.5H35.2812V8.5ZM39.2562 8.5H41.2437V6.5H39.2562V8.5ZM43.2312 8.5H45.2187V6.5H43.2312V8.5ZM47.2062 8.5H49.1937V6.5H47.2062V8.5ZM51.1812 8.5H53.1687V6.5H51.1812V8.5ZM55.1562 8.5H57.1437V6.5H55.1562V8.5ZM59.1312 8.5H61.1187V6.5H59.1312V8.5ZM63.1062 8.5H65.0937V6.5H63.1062V8.5ZM67.0812 8.5H69.0687V6.5H67.0812V8.5ZM71.0562 8.5H73.0437V6.5H71.0562V8.5ZM75.0312 8.5H77.0188V6.5H75.0312V8.5ZM79.0063 8.5H80.9938V6.5H79.0063V8.5ZM82.9813 8.5H84.9688V6.5H82.9813V8.5ZM86.9563 8.5H88.9438V6.5H86.9563V8.5ZM90.9313 8.5H92.9188V6.5H90.9313V8.5ZM94.9063 8.5H96.8938V6.5H94.9063V8.5ZM98.8813 8.5H100.869V6.5H98.8813V8.5ZM102.856 8.5H104.844V6.5H102.856V8.5ZM106.831 8.5H108.819V6.5H106.831V8.5ZM110.806 8.5H112.794V6.5H110.806V8.5ZM114.781 8.5H116.769V6.5H114.781V8.5ZM118.756 8.5H120.744V6.5H118.756V8.5ZM122.731 8.5H124.719V6.5H122.731V8.5ZM126.706 8.5H128.694V6.5H126.706V8.5ZM130.681 8.5H132.669V6.5H130.681V8.5ZM134.656 8.5H136.644V6.5H134.656V8.5ZM138.631 8.5H140.619V6.5H138.631V8.5ZM142.606 8.5H144.594V6.5H142.606V8.5ZM146.581 8.5H148.569V6.5H146.581V8.5ZM150.556 8.5H152.544V6.5H150.556V8.5ZM154.531 8.5H156.519V6.5H154.531V8.5ZM158.506 8.5H159.5V6.5H158.506V8.5Z" fill="#26A17B"/>
</svg>
