<svg width="249" height="16" viewBox="0 0 249 16" fill="none" xmlns="http://www.w3.org/2000/svg">
<path d="M0.646454 7.64645C0.451187 7.84171 0.451187 8.15829 0.646454 8.35355L3.82843 11.5355C4.0237 11.7308 4.34027 11.7308 4.53554 11.5355C4.73079 11.3403 4.73079 11.0237 4.53554 10.8284L1.70711 8L4.53554 5.17157C4.73079 4.97631 4.73079 4.65973 4.53554 4.46447C4.34027 4.2692 4.0237 4.2692 3.82843 4.46447L0.646454 7.64645ZM249 7.5H248V8.5H249V7.5ZM246 7.5L244 7.5V8.5H246V7.5ZM242 7.5H240V8.5L242 8.5V7.5ZM238 7.5H236V8.5H238V7.5ZM234 7.5H232V8.5H234V7.5ZM230 7.5H228V8.5H230V7.5ZM226 7.5H224V8.5H226V7.5ZM222 7.5H220V8.5H222V7.5ZM218 7.5L216 7.5V8.5H218V7.5ZM214 7.5H212V8.5L214 8.5V7.5ZM210 7.5L208 7.5V8.5H210V7.5ZM206 7.5H204V8.5H206V7.5ZM202 7.5L200 7.5V8.5H202V7.5ZM198 7.5H196V8.5H198V7.5ZM194 7.5H192V8.5H194V7.5ZM190 7.5H188V8.5H190V7.5ZM186 7.5H184V8.5H186V7.5ZM182 7.5L180 7.5V8.5H182V7.5ZM178 7.5H176V8.5H178V7.5ZM174 7.5L172 7.5V8.5H174V7.5ZM170 7.5H168V8.5L170 8.5V7.5ZM166 7.5L164 7.5V8.5H166V7.5ZM162 7.5H160V8.5H162V7.5ZM158 7.5H156V8.5H158V7.5ZM154 7.5H152V8.5H154V7.5ZM150 7.5H148V8.5H150V7.5ZM146 7.5H144V8.5H146V7.5ZM142 7.5H140V8.5L142 8.5V7.5ZM138 7.5L136 7.5V8.5H138V7.5ZM134 7.5H132V8.5H134V7.5ZM130 7.5L128 7.5V8.5H130V7.5ZM126 7.5H124V8.5L126 8.5V7.5ZM122 7.5H120V8.5H122V7.5ZM118 7.5H116V8.5H118V7.5ZM114 7.5H112V8.5H114V7.5ZM110 7.5H108V8.5H110V7.5ZM106 7.5H104V8.5H106V7.5ZM102 7.5L100 7.5V8.5H102V7.5ZM98 7.5H96V8.5L98 8.5V7.5ZM94 7.5L92 7.5V8.5H94V7.5ZM90 7.5H88V8.5H90V7.5ZM86 7.5L84 7.5V8.5H86V7.5ZM82 7.5H80V8.5H82V7.5ZM78 7.5H76V8.5H78V7.5ZM74 7.5H72V8.5H74V7.5ZM70 7.5H68V8.5H70V7.5ZM66 7.5L64 7.5V8.5H66V7.5ZM62 7.5H60V8.5H62V7.5ZM58 7.5L56 7.5V8.5H58V7.5ZM54 7.5H52V8.5L54 8.5V7.5ZM50 7.5L48 7.5V8.5H50V7.5ZM46 7.5H44V8.5H46V7.5ZM42 7.5H40V8.5H42V7.5ZM38 7.5H36V8.5H38V7.5ZM34 7.5H32V8.5H34V7.5ZM30 7.5H28V8.5H30V7.5ZM26 7.5H24V8.5L26 8.5V7.5ZM22 7.5L20 7.5V8.5H22V7.5ZM18 7.5H16V8.5H18V7.5ZM14 7.5L12 7.5V8.5H14V7.5ZM10 7.5H8V8.5L10 8.5V7.5ZM6 7.5H4V8.5H6V7.5ZM2 7.5H1V8.5H2V7.5ZM0.292892 7.29289C-0.0976257 7.68342 -0.0976257 8.31658 0.292892 8.70711L6.65686 15.0711C7.04738 15.4616 7.68054 15.4616 8.07108 15.0711C8.46159 14.6805 8.46159 14.0474 8.07108 13.6569L2.41422 8L8.07108 2.34315C8.46159 1.95262 8.46159 1.31946 8.07108 0.928932C7.68054 0.538408 7.04738 0.538408 6.65686 0.928932L0.292892 7.29289ZM249 7H248V9H249V7ZM246 7L244 7V9H246V7ZM242 7H240V9L242 9V7ZM238 7H236V9H238V7ZM234 7H232V9H234V7ZM230 7H228V9L230 9V7ZM226 7L224 7V9H226V7ZM222 7H220V9H222V7ZM218 7H216V9H218V7ZM214 7H212V9H214V7ZM210 7L208 7V9H210V7ZM206 7H204V9H206V7ZM202 7L200 7V9H202V7ZM198 7H196V9H198V7ZM194 7H192V9H194V7ZM190 7H188V9H190V7ZM186 7H184V9H186V7ZM182 7L180 7V9H182V7ZM178 7H176V9H178V7ZM174 7L172 7V9H174V7ZM170 7H168V9H170V7ZM166 7H164V9H166V7ZM162 7H160V9H162V7ZM158 7L156 7V9H158V7ZM154 7H152V9L154 9V7ZM150 7H148V9H150V7ZM146 7H144V9H146V7ZM142 7H140V9L142 9V7ZM138 7L136 7V9H138V7ZM134 7H132V9H134V7ZM130 7L128 7V9H130V7ZM126 7H124V9L126 9V7ZM122 7H120V9H122V7ZM118 7H116V9H118V7ZM114 7H112V9L114 9V7ZM110 7L108 7V9H110V7ZM106 7H104V9H106V7ZM102 7H100V9H102V7ZM98 7H96V9H98V7ZM94 7L92 7V9H94V7ZM90 7H88V9H90V7ZM86 7L84 7V9H86V7ZM82 7H80V9H82V7ZM78 7H76V9H78V7ZM74 7H72V9H74V7ZM70 7H68V9H70V7ZM66 7L64 7V9H66V7ZM62 7H60V9H62V7ZM58 7L56 7V9H58V7ZM54 7H52V9H54V7ZM50 7H48V9H50V7ZM46 7H44V9H46V7ZM42 7L40 7V9H42V7ZM38 7H36V9L38 9V7ZM34 7H32V9H34V7ZM30 7H28V9H30V7ZM26 7H24V9L26 9V7ZM22 7L20 7V9H22V7ZM18 7H16V9H18V7ZM14 7L12 7V9H14V7ZM10 7H8V9L10 9V7ZM6 7H4V9H6V7ZM2 7H1V9H2V7Z" fill="#26A17B"/>
</svg>
