<svg width="16" height="16" viewBox="0 0 16 16" fill="none"
  xmlns="http://www.w3.org/2000/svg">
  <path d="M7.99941 14.1667C7.87274 14.1667 7.74608 14.1201 7.64608 14.0201L3.59944 9.9734C3.4061 9.78007 3.4061 9.46007 3.59944 9.26673C3.79277 9.0734 4.11277 9.0734 4.3061 9.26673L7.99941 12.9601L11.6927 9.26673C11.8861 9.0734 12.2061 9.0734 12.3994 9.26673C12.5927 9.46007 12.5927 9.78007 12.3994 9.9734L8.35274 14.0201C8.25274 14.1201 8.12608 14.1667 7.99941 14.1667Z" fill="#292D32"/>
  <path d="M8 14.0533C7.72667 14.0533 7.5 13.8267 7.5 13.5533V2.33333C7.5 2.06 7.72667 1.83333 8 1.83333C8.27333 1.83333 8.5 2.06 8.5 2.33333V13.5533C8.5 13.8267 8.27333 14.0533 8 14.0533Z" fill="#292D32"/>
</svg>
