<svg id="a5a40144-cbb9-48ae-a7d5-c1fb6cf16f84" data-name="Layer 2" xmlns="http://www.w3.org/2000/svg" viewBox="0 0 123.49 123.49"><defs><style>.ee5dcd0b-75ca-46ef-8eef-ac1f2a5f9296{fill:none;stroke:#d5b5ff;stroke-miterlimit:10;stroke-width:5px;}.b88bab75-3c34-4adc-be26-4e3e1e699198{fill:#d5b5ff;}</style></defs><circle class="ee5dcd0b-75ca-46ef-8eef-ac1f2a5f9296" cx="61.75" cy="61.75" r="59.25"/><path class="b88bab75-3c34-4adc-be26-4e3e1e699198" d="M170.65,119.65a19.15,19.15,0,1,1,19.11-19.14A19.19,19.19,0,0,1,170.65,119.65Zm14-19.15a14,14,0,1,0-14,14A14.05,14.05,0,0,0,184.63,100.5Z" transform="translate(-108.74 -37.38)"/><path class="b88bab75-3c34-4adc-be26-4e3e1e699198" d="M148.08,80.6a2.67,2.67,0,0,1,1.5-2.6,2.33,2.33,0,0,1,2.65.32,26.87,26.87,0,0,1,2.45,2.44,2.54,2.54,0,0,1-3.6,3.55,23.64,23.64,0,0,1-2.39-2.41A4.59,4.59,0,0,1,148.08,80.6Z" transform="translate(-108.74 -37.38)"/><path class="b88bab75-3c34-4adc-be26-4e3e1e699198" d="M193.18,80.68a5.88,5.88,0,0,1-.72,1.36,23.88,23.88,0,0,1-2.12,2.15,2.55,2.55,0,0,1-3.61-3.61c.72-.77,1.46-1.51,2.24-2.21a2.33,2.33,0,0,1,2.69-.37A2.67,2.67,0,0,1,193.18,80.68Z" transform="translate(-108.74 -37.38)"/><path class="b88bab75-3c34-4adc-be26-4e3e1e699198" d="M151,122.84a2.66,2.66,0,0,1-2.65-1.52,2.33,2.33,0,0,1,.37-2.69,31.48,31.48,0,0,1,2.3-2.32,2.55,2.55,0,0,1,3.6,3.59,24.08,24.08,0,0,1-2.33,2.3A5.44,5.44,0,0,1,151,122.84Z" transform="translate(-108.74 -37.38)"/><path class="b88bab75-3c34-4adc-be26-4e3e1e699198" d="M193.18,120a2.65,2.65,0,0,1-1.49,2.6,2.33,2.33,0,0,1-2.7-.33,28.49,28.49,0,0,1-2.39-2.4,2.54,2.54,0,0,1,3.57-3.58,23.64,23.64,0,0,1,2.39,2.41A4.28,4.28,0,0,1,193.18,120Z" transform="translate(-108.74 -37.38)"/><path class="b88bab75-3c34-4adc-be26-4e3e1e699198" d="M173.16,73.48c0,.57,0,1.14,0,1.7a2.53,2.53,0,0,1-2.54,2.31,2.5,2.5,0,0,1-2.51-2.32,32.13,32.13,0,0,1,0-3.4,2.49,2.49,0,0,1,2.53-2.3,2.51,2.51,0,0,1,2.52,2.32C173.2,72.35,173.16,72.92,173.16,73.48Z" transform="translate(-108.74 -37.38)"/><path class="b88bab75-3c34-4adc-be26-4e3e1e699198" d="M197.4,102.82c-.55,0-1.09,0-1.63,0a2.54,2.54,0,0,1,0-5.06c1.1-.05,2.22-.05,3.33,0a2.49,2.49,0,0,1,2.33,2.51,2.52,2.52,0,0,1-2.35,2.55C198.53,102.86,198,102.82,197.4,102.82Z" transform="translate(-108.74 -37.38)"/><path class="b88bab75-3c34-4adc-be26-4e3e1e699198" d="M143.78,102.82c-.54,0-1.09,0-1.63,0a2.54,2.54,0,0,1,0-5.06q1.66-.08,3.33,0a2.49,2.49,0,0,1,2.34,2.49,2.53,2.53,0,0,1-2.34,2.57C144.92,102.86,144.35,102.82,143.78,102.82Z" transform="translate(-108.74 -37.38)"/><path class="b88bab75-3c34-4adc-be26-4e3e1e699198" d="M173.17,127.12c0,.55,0,1.09,0,1.63a2.53,2.53,0,0,1-2.56,2.35,2.5,2.5,0,0,1-2.49-2.35,30.64,30.64,0,0,1,0-3.32,2.51,2.51,0,0,1,2.55-2.35,2.54,2.54,0,0,1,2.5,2.35C173.2,126,173.17,126.56,173.17,127.12Z" transform="translate(-108.74 -37.38)"/></svg>