<svg width="31" height="27" viewBox="0 0 31 27" fill="none" xmlns="http://www.w3.org/2000/svg">
<path fill-rule="evenodd" clip-rule="evenodd" d="M25.905 7.72857L18.6443 8.96242L19.2249 7.64062L25.905 7.72857Z" fill="#E30613"/>
<path fill-rule="evenodd" clip-rule="evenodd" d="M19.2249 7.64025L15.5743 6.61426L18.6444 8.96205L19.2249 7.64025Z" fill="#D20A11"/>
<path fill-rule="evenodd" clip-rule="evenodd" d="M18.6444 8.96205L16.4924 12.1226L15.5743 6.61426L18.6444 8.96205Z" fill="#AE0F0A"/>
<path fill-rule="evenodd" clip-rule="evenodd" d="M15.5743 6.61426L13.2846 7.46703L16.4923 12.1226L15.5743 6.61426Z" fill="#9C1006"/>
<path fill-rule="evenodd" clip-rule="evenodd" d="M13.2846 7.4668L10.8464 12.3196L16.4924 12.1224L13.2846 7.4668Z" fill="#C00D0D"/>
<path fill-rule="evenodd" clip-rule="evenodd" d="M10.8464 12.3202L21.3742 11.9258L10.1498 17.5088L10.8464 12.3202Z" fill="#AE0F0A"/>
<path fill-rule="evenodd" clip-rule="evenodd" d="M21.3742 11.9258L31.0001 16.4295L10.1498 17.5088L21.3742 11.9258Z" fill="#D20A11"/>
<path fill-rule="evenodd" clip-rule="evenodd" d="M10.8465 12.3203L5.27612 16.4163L10.1498 17.5089L10.8465 12.3203Z" fill="#D20A11"/>
<path fill-rule="evenodd" clip-rule="evenodd" d="M14.7291 17.2715L8.77539 20.7146L10.1497 17.5087L14.7291 17.2715Z" fill="#9C1006"/>
<path fill-rule="evenodd" clip-rule="evenodd" d="M10.1498 17.5086L8.77547 20.7145L5.27612 16.416L10.1498 17.5086Z" fill="#AE0F0A"/>
<path fill-rule="evenodd" clip-rule="evenodd" d="M8.77542 20.7145L3.76941 19.0383L5.27607 16.416L8.77542 20.7145Z" fill="#D20A11"/>
<path fill-rule="evenodd" clip-rule="evenodd" d="M3.76936 19.0381L0 24.6291L2.96742 26.0681L3.76936 19.0381Z" fill="#E30613"/>
<path fill-rule="evenodd" clip-rule="evenodd" d="M2.96741 26.0681L5.78633 19.7123L3.76934 19.0381L2.96741 26.0681Z" fill="#C00D0D"/>
<path fill-rule="evenodd" clip-rule="evenodd" d="M2.96741 26.0687L4.47407 26.2313L6.27235 19.8781L5.78633 19.7129L2.96741 26.0687Z" fill="#9C1006"/>
<path fill-rule="evenodd" clip-rule="evenodd" d="M8.56201 4.73289L2.65686 0L5.27597 16.4159L8.56201 4.73289Z" fill="#E30613"/>
<path fill-rule="evenodd" clip-rule="evenodd" d="M5.27612 16.4164L10.8465 12.3204L8.56216 4.7334L5.27612 16.4164Z" fill="#C00D0D"/>
<path fill-rule="evenodd" clip-rule="evenodd" d="M8.56213 4.7334L11.5971 10.8307L10.8464 12.3204L8.56213 4.7334Z" fill="#AE0F0A"/>
</svg>
