<svg width="21" height="20" viewBox="0 0 21 20" fill="none"
  xmlns="http://www.w3.org/2000/svg">
  <path fill-rule="evenodd" clip-rule="evenodd" d="M-6.62737e-06 9.73757C-7.0272e-06 5.20523 2.96483 1.35912 7.07737 1.644e-05C6.91632 1.09533 6.82791 2.28766 6.82791 3.535C6.82791 8.89137 8.4583 13.2336 10.4695 13.2336C12.4807 13.2336 14.1111 8.89136 14.1111 3.53499C14.1111 2.31888 14.027 1.15503 13.8736 0.0824209C17.8612 1.50951 20.7115 5.29368 20.7115 9.73757C20.7115 10.0379 20.6984 10.3353 20.6729 10.6291C20.259 10.563 19.8121 10.527 19.3458 10.527C17.209 10.527 15.4767 11.2843 15.4767 12.2186C15.4767 13.1528 17.209 13.9102 19.3458 13.9102C19.5082 13.9102 19.6683 13.9058 19.8254 13.8973C18.2149 17.4925 14.5808 20 10.3557 20C6.1354 20 2.50472 17.4982 0.891475 13.9095C0.935546 13.91 0.979783 13.9102 1.02417 13.9102C3.4753 13.9102 5.46234 13.1528 5.46234 12.2186C5.46234 11.2843 3.4753 10.527 1.02417 10.527C0.683631 10.527 0.352048 10.5416 0.0335113 10.5693C0.0113097 10.2949 -6.60267e-06 10.0176 -6.62737e-06 9.73757ZM10.3557 15.0379C9.41295 15.0379 8.64871 15.7953 8.64871 16.7296C8.64871 17.6638 9.41295 18.4212 10.3557 18.4212C11.2984 18.4212 12.0627 17.6638 12.0627 16.7296C12.0627 15.7953 11.2984 15.0379 10.3557 15.0379Z" fill="url(#paint0_linear_203_45)"/>
  <defs>
    <linearGradient id="paint0_linear_203_45" x1="20.4467" y1="19.7376" x2="0.391035" y2="5.06506" gradientUnits="userSpaceOnUse">
      <stop stop-color="#993FF4"/>
      <stop offset="0.5" stop-color="#D5B5FF"/>
      <stop offset="1" stop-color="#993FF4"/>
    </linearGradient>
  </defs>
</svg>
