<svg width="21" height="20" viewBox="0 0 21 20" fill="none"
  xmlns="http://www.w3.org/2000/svg">
  <g clip-path="url(#clip0_203_116)">
    <path d="M6.66937 2.63938V17.5441C6.66937 17.5441 9.75088 16.7678 11.458 13.451C11.458 13.451 13.2953 10.3176 11.3278 6.43613C11.3278 6.43613 9.86662 3.48624 6.66937 2.63938Z" fill="#EA7D18"/>
    <path d="M15.2918 1.32675C19.7911 3.90967 20.283 8.15808 20.283 8.15808C21.2089 13.5074 17.8236 16.669 17.8236 16.669C13.2809 21.5385 7.20467 19.5342 7.20467 19.5342C11.6316 18.2216 13.2664 14.5801 13.2664 14.5801C15.668 9.56951 13.2664 5.65985 13.2664 5.65985C11.1397 1.36909 6.84299 0.55046 6.84299 0.55046C11.5304 -1.04446 15.2918 1.32675 15.2918 1.32675ZM16.3045 2.9499C16.3045 2.9499 16.073 5.36345 13.7004 5.36345C13.7004 5.36345 16.0152 5.75865 16.2322 8.01694C16.2322 8.01694 16.4347 5.54693 18.8652 5.43402C18.8507 5.43402 16.1888 5.2223 16.3045 2.9499ZM3.70361 2.24418H4.55717V17.8829H3.90615C3.90615 17.8829 1.15738 15.808 0.318286 12.59C0.318286 12.59 -0.795687 8.89203 1.04165 5.47636C1.05611 5.49047 2.41603 3.07692 3.70361 2.24418Z" fill="#EA7D18"/>
  </g>
  <defs>
    <clipPath id="clip0_203_116">
      <rect width="20.5" height="20" fill="white"/>
    </clipPath>
  </defs>
</svg>
