<svg width="21" height="20" viewBox="0 0 21 20" fill="none" xmlns="http://www.w3.org/2000/svg">
<g clip-path="url(#clip0_238_5427)">
<path d="M20.5259 16.8865C19.5272 18.5899 18.326 19.9684 16.6358 19.9684H4.92629C3.23609 19.9684 1.69955 18.588 1.49156 16.8865L0.0543312 5.08595C-0.15179 3.38261 1.04933 2.00219 2.58962 0.78418H14.2992C16.1374 2.00219 17.6739 3.38261 19.0887 5.08595L20.5259 16.8865Z" fill="url(#paint0_linear_238_5427)"/>
<path d="M16.6359 20.0004H4.9263C3.22486 20.0004 1.66958 18.6048 1.45971 16.8902L0.0243611 5.0896C-0.204246 3.21631 1.26484 1.79246 2.57089 0.759507C2.57652 0.75573 2.58401 0.751953 2.58963 0.751953H14.2992C14.3048 0.751953 14.3123 0.753842 14.3161 0.757618C16.1674 1.98508 17.6908 3.35416 19.1112 5.06505C19.1149 5.07071 19.1168 5.07638 19.1187 5.08204L20.5559 16.8826C20.5559 16.8902 20.5559 16.8958 20.5522 16.9034C19.7071 18.3442 18.4966 20.0004 16.6359 20.0004ZM2.60088 0.816159C0.687696 2.33065 -0.0880686 3.64686 0.0861974 5.08204L1.52342 16.8826C1.72767 18.5671 3.25484 19.9381 4.9263 19.9381H16.6359C18.06 19.9381 19.2498 18.9957 20.4922 16.8807L19.0587 5.09904C17.6458 3.3976 16.1299 2.03606 14.2898 0.816159H2.60088Z" fill="black"/>
<path d="M20.8839 15.0671C21.0919 16.7686 19.8908 18.1282 18.2006 18.1282H6.49101C4.80081 18.1282 3.26427 16.7686 3.05628 15.0671L1.61905 3.26845C1.41106 1.56701 2.61218 0.188477 4.30237 0.188477H16.0119C17.7021 0.188477 19.2387 1.56701 19.4467 3.26845L20.8839 15.0671Z" fill="url(#paint1_linear_238_5427)"/>
<path d="M18.2005 18.1286H6.49099C4.72397 18.1286 3.17431 16.769 2.96257 15.0316L1.52535 3.21027C1.42041 2.34916 1.65839 1.53904 2.1943 0.929091C2.71897 0.330469 3.46851 0 4.30236 0H16.0119C17.7433 0 19.3248 1.42952 19.5403 3.18761L20.9776 15.009C21.0787 15.8436 20.8539 16.6254 20.3442 17.2071C19.8214 17.8019 19.0606 18.1286 18.2005 18.1286ZM4.30236 0.18884C3.52285 0.18884 2.82391 0.49476 2.33484 1.05372C1.83453 1.62402 1.61342 2.38127 1.71273 3.18761L3.14995 15.009C3.35045 16.6519 4.81766 17.9398 6.49099 17.9398H18.2005C19.0063 17.9398 19.7165 17.6357 20.2018 17.0824C20.6759 16.5405 20.8857 15.8134 20.7902 15.0316L19.353 3.21027C19.1506 1.54471 17.6515 0.18884 16.0119 0.18884H4.30236Z" fill="black"/>
<path opacity="0.3" d="M3.79827 15.067L2.35917 3.26646C2.26547 2.49033 2.47534 1.76329 2.95317 1.21944C3.42537 0.681244 4.1037 0.384766 4.86447 0.384766H4.30045C3.53968 0.384766 2.85948 0.681244 2.38727 1.21944C1.91132 1.76329 1.70145 2.49033 1.79514 3.26646L3.23237 15.067C3.42912 16.6797 4.89071 17.9922 6.49096 17.9922H7.05498C5.4566 17.9922 3.99502 16.6797 3.79827 15.067Z" fill="white"/>
<path opacity="0.1" d="M2.00126 8.07007L0.92006 10.7573L0.558411 7.73016L1.63961 5.04297L2.00126 8.07007Z" fill="white"/>
<path d="M16.456 3.77721C14.8426 4.49291 7.92445 7.55966 6.01127 8.39433C4.72395 8.92875 5.59154 9.43106 5.59154 9.43106C5.59154 9.43106 6.80952 9.83329 7.84763 10.1335C8.88573 10.4357 9.37105 10.0996 9.37105 10.0996L13.6096 6.92139C15.1106 5.78457 14.8445 6.72122 14.5016 7.12156C13.7596 7.99211 12.5228 9.36308 11.4829 10.4678C11.0163 10.9361 11.3386 11.3383 11.599 11.5385C12.5641 12.275 15.1331 13.78 15.2792 13.8801C16.0512 14.3805 17.5297 15.1 17.5278 13.5799L17.6253 8.32635C17.644 6.55315 17.6796 4.91402 17.6478 4.4457C17.584 3.30888 16.456 3.77721 16.456 3.77721Z" fill="white"/>
</g>
<defs>
<linearGradient id="paint0_linear_238_5427" x1="1.16062" y1="17.3069" x2="17.9029" y2="3.63435" gradientUnits="userSpaceOnUse">
<stop stop-color="#006EAC"/>
<stop offset="1" stop-color="#41B4F2"/>
</linearGradient>
<linearGradient id="paint1_linear_238_5427" x1="2.00287" y1="11.4364" x2="20.3353" y2="6.31145" gradientUnits="userSpaceOnUse">
<stop stop-color="#006EAC"/>
<stop offset="1" stop-color="#41B4F2"/>
</linearGradient>
<clipPath id="clip0_238_5427">
<rect width="21" height="20" fill="white"/>
</clipPath>
</defs>
</svg>
