<svg width="40" height="41" viewBox="0 0 40 41" fill="none" xmlns="http://www.w3.org/2000/svg">
<path d="M39.001 20.9956C39.001 31.4893 30.4942 39.9961 20.0005 39.9961C9.50681 39.9961 1 31.4893 1 20.9956C1 10.5019 9.50681 1.99512 20.0005 1.99512C30.4942 1.99512 39.001 10.5019 39.001 20.9956Z" fill="#626262" stroke="#ACACAC" stroke-width="2"/>
<path d="M13.4178 26.96C13.0923 26.96 12.91 26.8135 12.8709 26.5205C12.8709 26.3773 12.9393 26.2178 13.076 26.042L17.9979 19.7627L13.3592 13.8838C13.2225 13.7145 13.1541 13.555 13.1541 13.4053C13.1541 13.1058 13.3331 12.9561 13.6912 12.9561H15.7908C16.4419 12.9561 17.0115 13.2653 17.4998 13.8838L20.1756 17.2822L22.8514 13.8838C23.3331 13.2718 23.9028 12.9626 24.5604 12.9561H26.66C27.018 12.9561 27.1971 13.1058 27.1971 13.4053C27.1971 13.5485 27.1287 13.708 26.992 13.8838L22.3533 19.7627L27.2752 26.042C27.4119 26.2113 27.4803 26.348 27.4803 26.4521C27.4803 26.5563 27.4673 26.6312 27.4412 26.6768C27.3696 26.8656 27.2003 26.96 26.9334 26.96H24.8533C24.2023 26.96 23.6359 26.654 23.1541 26.042L20.1756 22.2432L17.1971 26.042C16.7153 26.654 16.1489 26.96 15.4979 26.96H13.4178Z" fill="white"/>
</svg>
