<svg width="40" height="41" viewBox="0 0 40 41" fill="none" xmlns="http://www.w3.org/2000/svg">
<path d="M39.001 20.4868C39.001 30.9805 30.4942 39.4873 20.0005 39.4873C9.50681 39.4873 1 30.9805 1 20.4868C1 9.99314 9.50681 1.48633 20.0005 1.48633C30.4942 1.48633 39.001 9.99314 39.001 20.4868Z" fill="white" stroke="#ACACAC" stroke-width="2"/>
<path d="M13.4178 26.4512C13.0923 26.4512 12.91 26.3047 12.8709 26.0117C12.8709 25.8685 12.9393 25.709 13.076 25.5332L17.9979 19.2539L13.3592 13.375C13.2225 13.2057 13.1541 13.0462 13.1541 12.8965C13.1541 12.597 13.3331 12.4473 13.6912 12.4473H15.7908C16.4419 12.4473 17.0115 12.7565 17.4998 13.375L20.1756 16.7734L22.8514 13.375C23.3331 12.763 23.9028 12.4538 24.5604 12.4473H26.66C27.018 12.4473 27.1971 12.597 27.1971 12.8965C27.1971 13.0397 27.1287 13.1992 26.992 13.375L22.3533 19.2539L27.2752 25.5332C27.4119 25.7025 27.4803 25.8392 27.4803 25.9434C27.4803 26.0475 27.4673 26.1224 27.4412 26.168C27.3696 26.3568 27.2003 26.4512 26.9334 26.4512H24.8533C24.2023 26.4512 23.6359 26.1452 23.1541 25.5332L20.1756 21.7344L17.1971 25.5332C16.7153 26.1452 16.1489 26.4512 15.4979 26.4512H13.4178Z" fill="black"/>
</svg>
