<svg width="35" height="35" viewBox="0 0 35 35" fill="none" xmlns="http://www.w3.org/2000/svg">
	<g clip-path="url(#clip0_639_13)">
		<path d="M17.5 35C27.165 35 35 27.165 35 17.5C35 7.83502 27.165 0 17.5 0C7.83502 0 0 7.83502 0 17.5C0 27.165 7.83502 35 17.5 35Z" fill="#ACACAC" />
		<path d="M17.4998 32.6359C13.4541 32.6359 9.65825 31.0621 6.79449 28.2051C3.93749 25.3414 2.36377 21.5456 2.36377 17.4998C2.36377 13.4541 3.93749 9.65825 6.79449 6.79449C9.65825 3.93749 13.4541 2.36377 17.4998 2.36377C21.5456 2.36377 25.3414 3.93749 28.2051 6.79449C31.0621 9.6515 32.6359 13.4541 32.6359 17.4998C32.6359 21.5456 31.0621 25.3414 28.2051 28.2051C25.3414 31.0621 21.5456 32.6359 17.4998 32.6359ZM17.4998 3.7146C9.9014 3.7146 3.7146 9.9014 3.7146 17.4998C3.7146 25.0982 9.9014 31.285 17.4998 31.285C25.0982 31.285 31.285 25.0982 31.285 17.4998C31.285 9.9014 25.0982 3.7146 17.4998 3.7146Z" fill="white" />
		<path d="M16.9865 12.7921C17.5876 12.7921 18.1145 12.576 18.5535 12.1437C18.9857 11.7115 19.2019 11.1914 19.2019 10.5903C19.2019 9.94863 18.9857 9.41506 18.5535 8.9963C18.1077 8.57754 17.5876 8.36816 16.9865 8.36816C16.3719 8.36816 15.8586 8.5843 15.4331 9.01656C15.0008 9.44883 14.7847 9.97565 14.7847 10.5835C14.7847 11.1982 15.0008 11.7115 15.4331 12.137C15.8653 12.5692 16.3854 12.7921 16.9865 12.7921Z" fill="white" />
		<path d="M21.7214 23.3892H20.2625C20.2625 23.3892 19.5533 23.4027 19.5263 22.7408C19.4588 21.8695 19.398 21.1603 19.3912 20.9509L19.3034 18.8301C19.2967 18.7018 19.2899 18.5329 19.2899 18.3235C19.2899 17.8575 19.2832 17.4928 19.2764 17.2226C19.2697 17.1281 19.2629 17.02 19.2629 16.8984L19.2967 15.9934V13.8726C17.2029 14.8654 15.3523 15.4868 13.7313 15.757L13.4071 17.2631C13.6975 17.3172 13.9879 17.3509 14.2783 17.3509C14.6633 17.3509 15.0281 17.2834 15.3658 17.1483L15.413 20.1742C15.413 20.9171 15.4333 21.856 15.4536 22.7948C15.4671 23.4027 14.8592 23.3959 14.8592 23.3959H13.272V26.6447H15.4468C15.4536 26.6447 15.4603 26.6447 15.4603 26.6447H21.7147V23.3892H21.7214Z" fill="white" />
	</g>
	<defs>
		<clipPath id="clip0_639_13">
			<rect width="35" height="35" fill="white" />
		</clipPath>
	</defs>
</svg>
