<svg width="19" height="24" viewBox="0 0 19 24" fill="none" xmlns="http://www.w3.org/2000/svg">
<g opacity="0.2">
<path d="M9.21142 23.9996C13.0524 23.9996 16.1661 23.529 16.1661 22.9485C16.1661 22.368 13.0524 21.8975 9.21142 21.8975C5.37047 21.8975 2.25677 22.368 2.25677 22.9485C2.25677 23.529 5.37047 23.9996 9.21142 23.9996Z" fill="#3D1D55"/>
</g>
<path d="M12.6904 21.5449C12.7929 21.5449 14.0055 21.9646 13.9383 22.909C13.9383 22.909 13.6696 23.0204 13.375 22.7277C13.375 22.7277 13.3758 22.743 13.3758 22.7689C13.3747 22.8673 13.3573 23.1191 13.2153 23.2302C13.0359 23.3698 11.7113 22.5052 11.7113 22.5052C11.7113 22.5052 11.1419 23.1981 10.9177 23.0902C10.6938 22.9822 10.7257 22.2763 10.8025 22.1427C10.8025 22.1427 10.073 21.5956 10.5402 21.1126C11.0075 20.6292 11.3404 20.2701 11.3404 20.2701L14.3215 17.1338C14.3215 17.1338 14.3296 17.164 14.3422 17.2192C14.4324 17.6103 14.7665 19.2507 14.2389 20.1206C13.6376 21.1126 12.5879 21.5449 12.6904 21.5449Z" fill="#8DC63F"/>
<g opacity="0.7">
<path d="M10.8616 21.1508C10.3943 21.6338 11.1238 22.181 11.1238 22.181C11.0594 22.2932 11.0263 22.8094 11.1508 23.0356C11.0601 23.0914 10.9768 23.1188 10.9177 23.0902C10.6939 22.9822 10.7257 22.2763 10.8026 22.1427C10.8026 22.1427 10.073 21.5956 10.5403 21.1126C11.0076 20.6292 11.3405 20.2701 11.3405 20.2701L14.3215 17.1338C14.3215 17.1338 14.3296 17.164 14.3423 17.2192C14.3546 17.2716 14.3711 17.3463 14.3892 17.439L11.6619 20.3083C11.6617 20.3083 11.3288 20.6673 10.8616 21.1508Z" fill="white"/>
</g>
<path d="M13.1619 23.3607C13.04 23.3607 12.815 23.2872 12.3394 23.02C12.0938 22.882 11.8568 22.7342 11.7343 22.6564C11.5181 22.9068 11.1156 23.3131 10.8674 23.1934C10.7838 23.153 10.7212 23.0679 10.6816 22.9403C10.6121 22.7172 10.6177 22.3699 10.6674 22.1798C10.5452 22.072 10.2951 21.8164 10.2708 21.5146C10.2566 21.338 10.3193 21.1761 10.4572 21.0335C10.918 20.5567 11.2523 20.1963 11.2556 20.1927L11.425 20.3478C11.4217 20.3514 11.086 20.7135 10.6233 21.1921C10.5319 21.2867 10.4917 21.3861 10.5003 21.4959C10.5232 21.7854 10.8686 22.0491 10.8722 22.0518C10.9182 22.0865 10.9314 22.1499 10.9027 22.1998C10.8692 22.2593 10.8273 22.6371 10.9024 22.875C10.9246 22.9453 10.951 22.9792 10.9682 22.9876C11.0505 23.0091 11.3695 22.7403 11.6221 22.4331C11.6595 22.3876 11.7252 22.3776 11.7746 22.4098C12.3253 22.7693 13.0028 23.1391 13.1542 23.1319C13.2527 23.0408 13.2642 22.8102 13.2602 22.7341C13.2578 22.6868 13.2848 22.6427 13.3284 22.6235C13.372 22.6043 13.4229 22.6137 13.4567 22.6471C13.6084 22.7979 13.7462 22.8194 13.8256 22.8154C13.8097 22.0368 12.8076 21.6765 12.6861 21.6597C12.6238 21.6579 12.5843 21.6156 12.5726 21.5738C12.5471 21.483 12.6088 21.446 12.7317 21.3723C12.9956 21.2141 13.6967 20.7937 14.1405 20.0618C14.7099 19.1227 14.2152 17.1823 14.2101 17.1628L14.4331 17.1055C14.4549 17.1888 14.9572 19.1585 14.3378 20.18C13.9134 20.8799 13.2772 21.3074 12.9504 21.508C13.1691 21.5966 13.4766 21.7626 13.7096 22.0111C13.9614 22.2796 14.077 22.5846 14.0533 22.9175C14.0502 22.9607 14.0228 22.9984 13.9826 23.0151C13.9713 23.0198 13.7466 23.109 13.4757 22.9511C13.4539 23.0789 13.403 23.2296 13.2864 23.3206C13.2584 23.3421 13.2231 23.3607 13.1619 23.3607ZM12.6879 21.6596C12.6888 21.6596 12.6896 21.6596 12.6904 21.6596C12.6895 21.6596 12.6887 21.6596 12.6879 21.6596ZM12.6905 21.4307C12.6927 21.4307 12.6951 21.4308 12.6978 21.431C12.6953 21.4308 12.6929 21.4307 12.6905 21.4307Z" fill="#2D0106"/>
<path d="M18.3845 15.9208C18.1799 16.2588 17.7108 16.5033 17.7108 16.5033L17.7463 15.9678L17.54 15.6526C17.1933 15.4426 16.9717 15.6526 16.9717 15.6526C16.9717 15.6526 16.6645 15.5827 16.7125 15.1917C16.7605 14.8006 16.4629 14.4858 16.9717 14.3618C17.4804 14.2378 18.2676 14.1138 18.4691 14.419C18.6708 14.7243 18.4691 15.764 18.4691 15.764" fill="#8DC63F"/>
<g opacity="0.3">
<path d="M18.3845 15.9208C18.1799 16.2588 17.7108 16.5033 17.7108 16.5033L17.7463 15.9678L17.54 15.6526C17.1933 15.4426 16.9717 15.6526 16.9717 15.6526C16.9717 15.6526 16.6645 15.5827 16.7125 15.1917C16.7605 14.8006 16.4629 14.4858 16.9717 14.3618C17.4804 14.2378 18.2676 14.1138 18.4691 14.419C18.6708 14.7243 18.4691 15.764 18.4691 15.764" fill="#3D1D55"/>
</g>
<path d="M17.7107 16.6183C17.6889 16.6183 17.667 16.6121 17.6479 16.5997C17.613 16.5772 17.5931 16.5376 17.5958 16.4962L17.6288 15.9988L17.4583 15.7381C17.2033 15.5963 17.0527 15.7344 17.0512 15.7359L16.8922 15.5702C16.9039 15.5592 17.1825 15.3025 17.5999 15.5553C17.6146 15.5642 17.6272 15.5763 17.6366 15.5907L17.8429 15.9059C17.8564 15.9266 17.8629 15.9512 17.8612 15.9758L17.8404 16.2905C17.9843 16.1932 18.1781 16.0403 18.2858 15.8623L18.4832 15.9803C18.2645 16.3416 17.7847 16.5945 17.7644 16.6051C17.7474 16.6139 17.7291 16.6183 17.7107 16.6183Z" fill="#2D0106"/>
<path d="M18.4691 16.1749L18.2195 15.4278C18.2195 15.4278 17.8229 16.0253 17.4197 16.1749C17.4197 16.1749 17.5042 15.9165 17.5448 15.619C17.5917 15.2779 17.5805 14.8849 17.3171 14.7727C16.8245 14.5628 16.8437 15.3896 16.9205 15.5548C16.9435 15.6044 16.9835 15.6731 17.0226 15.7471C17.0226 15.7471 17.0226 15.7471 17.0226 15.7475C17.114 15.9196 17.2015 16.1195 17.0675 16.1749C16.7669 16.2988 16.338 15.7075 16.338 15.7075C16.338 15.7075 15.3854 17.7545 14.5191 16.5263C14.5184 16.5252 14.5176 16.524 14.5168 16.5229C13.6502 15.2878 13.8295 14.728 13.8295 14.728L14.7372 13.1289C14.7372 13.1289 15.3081 14.1305 15.4517 14.6391C15.4517 14.6391 16.5299 13.3036 17.8738 13.7359C18.4209 13.9122 18.7104 14.2464 18.8248 14.623C18.9917 15.1706 18.7878 15.8075 18.4691 16.1749Z" fill="#8DC63F"/>
<g opacity="0.7">
<path d="M18.883 14.9717C18.7916 14.5551 18.5014 14.1758 17.9058 13.9839C16.5619 13.5516 15.4838 14.887 15.4838 14.887C15.3402 14.3784 14.7696 13.3769 14.7696 13.3769L13.8616 14.976C13.8616 14.976 13.8431 15.0339 13.8469 15.1542C13.7855 14.8653 13.8297 14.728 13.8297 14.728L14.7374 13.1289C14.7374 13.1289 15.3083 14.1305 15.4519 14.6391C15.4519 14.6391 16.5301 13.3036 17.874 13.7359C18.5862 13.9652 18.8619 14.4628 18.883 14.9717Z" fill="white"/>
</g>
<path d="M15.1189 17.0329C14.8638 17.0329 14.6298 16.8835 14.4225 16.5881C13.5336 15.321 13.7118 14.718 13.7197 14.693L13.9393 14.7624C13.9384 14.7659 13.8004 15.3011 14.6114 16.4571C14.7837 16.7027 14.9675 16.8187 15.1567 16.8023C15.6216 16.7618 16.0916 15.9632 16.2336 15.659C16.2507 15.6221 16.2863 15.597 16.3271 15.5932C16.3678 15.5891 16.4075 15.6072 16.4315 15.6401C16.5824 15.8478 16.8733 16.1269 17.0213 16.0696C17.0339 16.0065 16.9228 15.8033 16.8802 15.7255C16.8556 15.6805 16.8323 15.638 16.8158 15.6025C16.7466 15.4534 16.716 14.9424 16.9276 14.7263C16.9907 14.6618 17.1311 14.5686 17.3626 14.6671C17.7883 14.8484 17.6972 15.5392 17.6046 15.9363C17.8833 15.7224 18.1204 15.3688 18.1234 15.3643C18.1477 15.3278 18.1909 15.3081 18.2347 15.3139C18.2784 15.3197 18.315 15.3497 18.3289 15.3913L18.5082 15.9282C18.7132 15.6026 18.8476 15.1254 18.7217 14.6789C18.6101 14.2832 18.3047 13.9948 17.8385 13.8447C16.5872 13.4421 15.552 14.6978 15.5418 14.7106C15.5148 14.744 15.4714 14.7596 15.429 14.751C15.3868 14.7424 15.3528 14.7111 15.3412 14.6698C15.2028 14.1801 14.643 13.195 14.6374 13.1851L14.8379 13.0723C14.8588 13.1089 15.2976 13.8814 15.4986 14.4159C15.8391 14.0653 16.7742 13.2617 17.9095 13.627C18.5956 13.8477 18.8505 14.2873 18.9435 14.6171C19.1169 15.2318 18.8644 15.8942 18.5564 16.2493C18.5294 16.2806 18.4876 16.2949 18.4468 16.2869C18.4062 16.2789 18.373 16.2498 18.3598 16.2107L18.1806 15.6739C18.023 15.8728 17.7476 16.1752 17.46 16.2819C17.4186 16.2973 17.3719 16.2877 17.34 16.2573C17.3081 16.2269 17.2964 16.1811 17.3102 16.1393C17.4028 15.8557 17.5946 15.0151 17.2719 14.8777C17.1514 14.8264 17.1103 14.8682 17.0928 14.8861C16.9655 15.0161 16.985 15.4204 17.0251 15.5067C17.0384 15.5354 17.0599 15.5748 17.0827 15.6163C17.1806 15.7954 17.2916 15.9983 17.2373 16.1511C17.2161 16.2106 17.1727 16.2554 17.1119 16.2805C16.8379 16.3934 16.5265 16.1059 16.3602 15.9172C16.1792 16.2508 15.7224 16.9829 15.1772 17.0306C15.1576 17.032 15.1381 17.0329 15.1189 17.0329Z" fill="#2D0106"/>
<path d="M9.04272 10.292C9.04272 10.292 8.33876 10.4479 8.29399 10.5878C8.24923 10.7277 8.38359 11.4908 8.49238 11.6307" fill="#FBB040"/>
<path d="M6.81817 12.9622C6.8094 12.909 6.73262 12.4321 6.88618 12.1968C7.03973 11.9615 7.71805 12.4511 7.71805 12.4511" fill="#FBB040"/>
<path d="M5.51666 13.7102C5.51666 13.7102 5.50384 12.9281 5.74062 12.7182C5.9774 12.5083 6.52165 13.1285 6.52165 13.1285" fill="#FBB040"/>
<path d="M3.78247 13.6954C3.78247 13.6954 4.23353 13.3368 4.49753 13.3224C4.76152 13.3081 4.77592 14.2716 4.77592 14.2716" fill="#FBB040"/>
<path d="M2.72455 12.4626C2.72455 12.4626 3.25928 12.3182 3.45602 12.4626C3.45602 12.4626 3.45123 12.9627 3.29767 13.1926" fill="#FBB040"/>
<path d="M2.25677 10.748C2.30416 10.7664 2.86731 10.989 2.96328 11.1288C3.05925 11.2688 2.43215 11.9492 2.43215 11.9492" fill="#FBB040"/>
<path d="M8.40122 11.701C8.27735 11.5418 8.1253 10.7374 8.18423 10.5534C8.22727 10.419 8.50768 10.2935 9.01768 10.1807L9.06776 10.4041C8.76523 10.4712 8.46127 10.5753 8.40197 10.6313C8.3788 10.7678 8.49951 11.453 8.58348 11.561L8.40122 11.701Z" fill="#2D0106"/>
<path d="M6.70442 12.9807C6.6823 12.8465 6.62307 12.3893 6.78944 12.1343C6.82776 12.0756 6.88691 12.0375 6.96054 12.0239C7.23496 11.9735 7.69599 12.2937 7.78566 12.3585L7.65025 12.5437C7.46026 12.4067 7.13366 12.2246 7.00253 12.2491C6.98738 12.2519 6.98461 12.2562 6.98273 12.259C6.88616 12.407 6.89493 12.7203 6.93175 12.9437L6.70442 12.9807Z" fill="#2D0106"/>
<path d="M5.40144 13.7122C5.40002 13.6268 5.39552 12.8707 5.66394 12.6329C5.7228 12.5808 5.79837 12.556 5.88235 12.5612C6.1848 12.5801 6.56599 13.005 6.60842 13.0534L6.43485 13.2039C6.29862 13.0489 6.02413 12.7994 5.86788 12.7897C5.83939 12.7878 5.82626 12.7958 5.81734 12.8038C5.67384 12.931 5.62743 13.4263 5.63185 13.7086L5.40144 13.7122Z" fill="#2D0106"/>
<path d="M4.66077 14.2736C4.6547 13.8783 4.57867 13.4827 4.50054 13.4373C4.33454 13.4487 4.01679 13.6562 3.85439 13.7851L3.71051 13.6062C3.75962 13.5672 4.19891 13.2242 4.49132 13.2084C4.55295 13.2048 4.61181 13.2272 4.66077 13.2727C4.86868 13.4654 4.88915 14.1373 4.8911 14.2701L4.66077 14.2736Z" fill="#2D0106"/>
<path d="M3.39365 13.2556L3.20171 13.129C3.29603 12.9878 3.32984 12.694 3.33846 12.531C3.20276 12.4884 2.92961 12.5258 2.75469 12.5729L2.69434 12.3519C2.79263 12.3253 3.29453 12.2015 3.52441 12.3703C3.5541 12.3921 3.57157 12.4267 3.57119 12.4635C3.57067 12.5181 3.56122 13.0046 3.39365 13.2556Z" fill="#2D0106"/>
<path d="M2.51712 12.0258L2.34723 11.8712C2.60919 11.5869 2.83413 11.2798 2.85632 11.1789C2.78044 11.1034 2.47491 10.9547 2.21497 10.8539L2.29864 10.6406C2.44867 10.6987 2.94697 10.9011 3.05846 11.0636C3.0949 11.1167 3.20586 11.2785 2.51712 12.0258Z" fill="#2D0106"/>
<path d="M1.95147 8.31357L1.58191 8.0008C1.44035 7.88099 1.47274 7.65546 1.64234 7.57984L2.88538 7.02544C3.05408 6.95019 3.24482 7.07282 3.24482 7.25663V8.32989C3.24482 8.48307 3.10821 8.60072 2.95564 8.57881L2.17932 8.46765" fill="#FBB040"/>
<g opacity="0.7">
<path d="M3.24483 7.25661V8.32994C3.24483 8.4753 3.1212 8.589 2.97799 8.58065C2.99524 8.54705 3.00483 8.5089 3.00483 8.46808V7.39474C3.00483 7.21086 2.81402 7.08837 2.64547 7.16355L1.54773 7.65305C1.5715 7.62251 1.60299 7.59732 1.6422 7.57982L2.88547 7.02542C3.05402 6.95024 3.24483 7.07273 3.24483 7.25661Z" fill="white"/>
</g>
<path d="M2.99188 8.69506C2.97441 8.69506 2.95679 8.69379 2.93925 8.69126L2.16293 8.5801L2.19577 8.35353L2.97209 8.46469C3.0122 8.47035 3.05134 8.4591 3.08208 8.43265C3.11274 8.4062 3.12969 8.3694 3.12969 8.32901V7.25583C3.12969 7.20777 3.10645 7.16531 3.06581 7.13923C3.02525 7.11308 2.97674 7.10943 2.93257 7.1291L1.68953 7.68349C1.64544 7.70316 1.61628 7.74168 1.60945 7.78914C1.60263 7.83668 1.6198 7.88175 1.65654 7.91282L2.0261 8.2256L1.87675 8.39987L1.50719 8.08709C1.41047 8.00521 1.36346 7.88175 1.38137 7.75673C1.39929 7.63171 1.47922 7.52629 1.59513 7.47451L2.83818 6.92011C2.95319 6.86885 3.08508 6.87883 3.19094 6.94693C3.29681 7.01503 3.36002 7.13044 3.36002 7.25576V8.32901C3.36002 8.43526 3.31368 8.53614 3.23286 8.60565C3.16545 8.66377 3.07983 8.69506 2.99188 8.69506Z" fill="#2D0106"/>
<path d="M1.95148 9.98729C1.95148 9.98729 3.11789 10.2575 3.38616 11.6977L3.75535 11.8097C3.75535 11.8097 5.13163 11.5328 5.636 12.4511L6.01576 12.5173C6.01576 12.5173 6.71874 12.1341 7.64441 12.6927C8.57007 13.2513 8.40917 11.8421 8.40917 11.8421C8.40917 11.8421 7.82833 11.6106 7.78281 11.5889C7.73723 11.5671 6.94847 10.1817 6.9205 9.98729C6.89254 9.79291 6.70067 8.68023 6.49906 8.51163C6.29744 8.34302 5.91349 7.98055 5.75986 7.98055C5.60631 7.98055 4.74235 7.86611 4.70396 7.98055C4.66557 8.09499 2.15062 9.74202 2.15062 9.74202" fill="#D7DF23"/>
<path d="M8.02142 12.9384C7.8938 12.9384 7.74782 12.8891 7.5846 12.7906C6.73181 12.276 6.09736 12.6038 6.07074 12.618C6.04802 12.6302 6.0214 12.6346 5.99584 12.6302L5.61608 12.5639C5.58159 12.5579 5.55167 12.5366 5.53488 12.506C5.07774 11.6737 3.79106 11.9195 3.77817 11.9221C3.7595 11.9259 3.74008 11.925 3.72178 11.9194L3.3526 11.8073C3.31151 11.7949 3.28077 11.7607 3.27297 11.7187C3.02247 10.3738 1.9698 10.1095 1.92511 10.0989L1.97767 9.87598C2.02753 9.88752 3.18412 10.1712 3.48591 11.6084L3.76212 11.6922C3.97333 11.6557 5.18931 11.4875 5.70912 12.3477L5.99891 12.3982C6.16603 12.3227 6.84525 12.0765 7.70426 12.5949C7.8345 12.6735 8.01317 12.7523 8.12548 12.681C8.304 12.5677 8.3241 12.1142 8.29486 11.855L8.52376 11.8293C8.53321 11.9124 8.60609 12.6474 8.24972 12.8739C8.18187 12.9169 8.10569 12.9384 8.02142 12.9384Z" fill="#2D0106"/>
<path d="M9.45429 5.53847C9.45429 5.53847 7.94801 8.11973 7.65582 7.02695C7.36371 5.93418 6.21424 5.0743 6.56491 4.52959C6.91565 3.98495 6.56491 2.71343 6.56491 2.71343C7.21001 2.13318 7.25087 0.710938 7.25087 0.710938L9.00428 3.33742" fill="#D7DF23"/>
<path d="M7.91004 7.4119C7.89272 7.4119 7.8766 7.41064 7.86153 7.40862C7.75603 7.39462 7.61545 7.3222 7.54445 7.05673C7.42059 6.59345 7.13118 6.16579 6.8758 5.78849C6.52986 5.27738 6.23108 4.83601 6.46785 4.46825C6.7326 4.0572 6.54748 3.08423 6.45376 2.74403C6.44229 2.70238 6.45533 2.6579 6.48757 2.62892C7.08836 2.0886 7.1353 0.721717 7.13575 0.708008L7.366 0.714564C7.36435 0.773052 7.31839 2.12019 6.69323 2.75007C6.76206 3.02738 6.99194 4.0791 6.66197 4.59163C6.50662 4.83288 6.76634 5.21651 7.06699 5.66072C7.33249 6.05291 7.63337 6.49749 7.7672 6.99795C7.78835 7.077 7.82719 7.17311 7.89219 7.18168C7.9515 7.1895 8.18955 7.15471 8.765 6.37485C9.08785 5.93728 9.35207 5.48592 9.35469 5.48138L9.55398 5.59619C9.55128 5.60081 9.28092 6.06275 8.95079 6.51016C8.37924 7.28472 8.08413 7.4119 7.91004 7.4119Z" fill="#2D0106"/>
<path d="M8.29537 1.89425L7.33034 0.326795C7.26166 0.215185 7.10901 0.190598 7.00839 0.274939C6.92989 0.340653 6.90919 0.452412 6.95883 0.54167L7.99561 2.40521L7.78283 3.33803C7.78283 3.33803 7.43006 2.74451 6.54818 2.33458C6.44576 2.28697 6.32407 2.33793 6.28629 2.44388L6.28426 2.44962C6.25397 2.53448 6.28793 2.62828 6.36486 2.67589C6.57997 2.80896 7.00329 3.12889 7.26279 3.70758C7.62208 4.50889 8.71637 3.79534 8.74516 3.60208" fill="#8DC63F"/>
<g opacity="0.7">
<path d="M7.71578 3.24122L7.65475 3.50944C7.65475 3.50944 7.30228 2.91615 6.42033 2.50592C6.37234 2.48379 6.32008 2.48304 6.27405 2.49981C6.27517 2.48304 6.27862 2.4662 6.28439 2.44944L6.28634 2.4437C6.32436 2.33761 6.44567 2.28687 6.54824 2.33418C7.21276 2.64331 7.57715 3.05652 7.71578 3.24122Z" fill="white"/>
</g>
<g opacity="0.7">
<path d="M8.74511 3.60193C8.73934 3.64045 8.69098 3.69998 8.61458 3.76368L8.16727 2.06577L7.20239 0.498387C7.1448 0.405254 7.02881 0.372844 6.93359 0.414046C6.93974 0.36137 6.96508 0.311004 7.0085 0.275167C7.10911 0.190454 7.26154 0.215264 7.33022 0.326651L8.29548 1.89411L8.74511 3.60193Z" fill="white"/>
</g>
<path d="M7.82142 4.19417C7.51919 4.19417 7.28624 4.04129 7.15758 3.75429C6.91293 3.20868 6.5178 2.90537 6.30404 2.77319C6.17988 2.69638 6.12709 2.54767 6.17568 2.41154L6.1777 2.40581C6.20657 2.32482 6.26895 2.25933 6.3488 2.2261C6.4285 2.19294 6.51892 2.19481 6.59697 2.23109C7.18104 2.50259 7.54056 2.85061 7.7259 3.06973L7.87353 2.42264L6.85797 0.597249C6.78194 0.460605 6.81396 0.288347 6.93407 0.187615C7.00777 0.125925 7.10457 0.0992514 7.19971 0.1146C7.29486 0.129948 7.37831 0.185529 7.42854 0.267262L8.39365 1.83472L8.19713 1.95423L7.23203 0.38677C7.21118 0.352944 7.17977 0.343333 7.16282 0.340651C7.14588 0.337894 7.11304 0.337149 7.08252 0.362704C7.04624 0.393103 7.03656 0.445182 7.05951 0.486533L8.09629 2.35C8.10993 2.37459 8.11406 2.40327 8.10783 2.43069L7.89505 3.36351C7.88463 3.40925 7.84714 3.44405 7.8005 3.45127C7.75394 3.45858 7.70753 3.43674 7.68354 3.39636C7.68024 3.39092 7.33452 2.82662 6.49928 2.43844C6.47289 2.42615 6.44934 2.4324 6.43765 2.43732C6.42588 2.44224 6.40466 2.45453 6.39476 2.48232L6.39274 2.48806C6.38059 2.52204 6.39416 2.55944 6.42565 2.57888C6.66183 2.72491 7.09827 3.05974 7.36789 3.66116C7.46123 3.86933 7.61261 3.96767 7.83192 3.96522C8.20291 3.95918 8.59668 3.66615 8.6329 3.57786C8.6329 3.57793 8.63177 3.58054 8.6311 3.58546L8.85903 3.61899C8.83084 3.80801 8.36943 4.12838 7.95376 4.18493C7.9084 4.19112 7.86416 4.19417 7.82142 4.19417Z" fill="#2D0106"/>
<path d="M15.1055 7.98047C15.6039 7.19809 16.2335 7.17283 16.2335 7.17283L16.6783 7.00161C16.8137 5.48229 17.6532 5.06155 17.6532 5.06155L17.7971 4.72829C16.7603 3.77499 17.5077 2.53223 17.5077 2.53223L16.2997 2.89939L14.9174 4.12457" fill="#D7DF23"/>
<path d="M15.2028 8.04183L15.0081 7.91935C15.4874 7.16706 16.0861 7.07184 16.2077 7.06014L16.5704 6.92052C16.7117 5.57859 17.3899 5.08603 17.5625 4.98135L17.6598 4.75605C16.6547 3.75901 17.401 2.4866 17.4088 2.47363L17.6067 2.59091C17.5783 2.63851 16.9211 3.76706 17.8753 4.64436C17.9111 4.67729 17.9222 4.729 17.9029 4.77348L17.759 5.10675C17.7484 5.13148 17.7293 5.15167 17.705 5.16382C17.6977 5.16762 16.9203 5.58284 16.7929 7.01179C16.789 7.05523 16.7607 7.0927 16.7198 7.10842L16.275 7.27964C16.2632 7.28418 16.2507 7.28679 16.238 7.28731C16.2154 7.28858 15.6593 7.32538 15.2028 8.04183Z" fill="#2D0106"/>
<path d="M14.8278 3.77506C14.8278 3.77506 16.3089 2.454 17.5413 1.9288C17.7888 1.8233 17.9948 2.14867 17.7905 2.32309C17.7719 2.33903 17.7517 2.35528 17.73 2.37197C17.2308 2.75351 15.1766 4.05081 14.9174 4.4705C14.6582 4.89019 15.0806 4.96649 15.0806 4.96649C15.0806 4.96649 16.6068 4.42274 18.1811 4.80436C18.1811 4.80436 18.3859 5.03645 17.8996 5.11282C17.4133 5.18918 16.3285 5.03332 15.1478 5.54845L15.2566 5.92679C15.2566 5.92679 15.8357 6.17505 16.6783 7.00199C16.7491 7.07158 16.7523 7.18684 16.6816 7.25657C16.6029 7.33421 16.4885 7.39441 16.3636 7.28764C16.1332 7.0905 15.6917 6.64533 14.9686 6.42278" fill="#8DC63F"/>
<g opacity="0.7">
<path d="M14.8698 4.56055L14.8855 4.85812C14.8337 4.79673 14.8072 4.70248 14.8698 4.56055Z" fill="white"/>
</g>
<g opacity="0.7">
<path d="M14.9174 4.47031C14.8978 4.50235 14.8821 4.53215 14.8698 4.56039L14.8279 3.7748C14.8279 3.7748 16.3089 2.45388 17.5414 1.92884C17.7304 1.8483 17.8951 2.01847 17.8716 2.18141C17.8102 2.13216 17.7246 2.11235 17.6336 2.15124C16.4014 2.67665 14.9201 3.99757 14.9201 3.99757L14.9431 4.43328C14.9331 4.44632 14.9247 4.45891 14.9174 4.47031Z" fill="white"/>
</g>
<g opacity="0.7">
<path d="M18.1815 5.00623C16.6407 4.667 15.1732 5.18974 15.1732 5.18974C15.1732 5.18974 15.0503 5.16761 14.9777 5.08103L15.0507 6.45008C15.0238 6.44092 14.9962 6.43175 14.9685 6.42333L14.8856 4.85856C14.8986 4.87421 14.9132 4.88754 14.9286 4.89939C14.942 4.9093 14.9559 4.91809 14.9697 4.92569C15.0269 4.95735 15.0806 4.96689 15.0806 4.96689C15.0806 4.96689 16.6069 4.42315 18.1812 4.80477C18.1811 4.80477 18.2768 4.91317 18.1815 5.00623Z" fill="white"/>
</g>
<g opacity="0.7">
<path d="M14.9697 4.92484L14.9778 5.08011C14.9417 5.03734 14.9183 4.97826 14.9286 4.89846C14.9328 4.86412 14.9436 4.82597 14.962 4.7832L14.9697 4.92484Z" fill="white"/>
</g>
<path d="M16.5018 7.45977C16.428 7.45977 16.355 7.43146 16.2885 7.37446C16.2617 7.35151 16.2321 7.32536 16.1996 7.29652C15.957 7.08165 15.551 6.72201 14.9345 6.53224L15.0027 6.31357C15.667 6.51801 16.0963 6.89837 16.3529 7.12568C16.3843 7.15355 16.413 7.17888 16.4388 7.20101C16.4696 7.22731 16.5115 7.2633 16.6005 7.17545C16.6149 7.1613 16.6179 7.14423 16.6179 7.13246C16.6179 7.11413 16.6104 7.09633 16.5973 7.08351C15.7838 6.28518 15.2164 6.03432 15.2108 6.03186C15.1793 6.01823 15.1553 5.99118 15.1459 5.95825L15.0371 5.57983C15.0212 5.52477 15.0488 5.46658 15.1015 5.44356C15.9864 5.05747 16.8289 5.03922 17.3862 5.02707C17.5861 5.02275 17.7588 5.01895 17.8815 4.99973C18.0826 4.96821 18.1082 4.91539 18.1084 4.91487C18.1092 4.91286 18.1086 4.90906 18.1072 4.90451C16.6027 4.55761 15.1342 5.06902 15.1193 5.07424C15.1003 5.08102 15.0797 5.08273 15.0599 5.07908C15.0365 5.07483 14.828 5.03244 14.7474 4.85303C14.691 4.72778 14.7152 4.57892 14.8192 4.41054C15.0005 4.11691 15.8732 3.50909 16.9097 2.80359C17.2349 2.58224 17.5159 2.39098 17.6597 2.28108C17.6797 2.26574 17.6983 2.25076 17.7154 2.23616C17.7893 2.17305 17.7473 2.09691 17.738 2.08223C17.7287 2.0674 17.6776 1.99528 17.5867 2.03387C16.3862 2.54551 14.9194 3.84705 14.9047 3.86009L14.7507 3.68969C14.8118 3.63523 16.2602 2.35 17.4958 1.82347C17.659 1.75381 17.839 1.8105 17.9334 1.96108C18.0274 2.11084 17.9994 2.29531 17.8654 2.40976C17.8453 2.42689 17.8236 2.44455 17.8 2.46251C17.6512 2.57628 17.3679 2.7691 17.0398 2.99247C16.3015 3.49493 15.1858 4.2543 15.0154 4.53019C14.9729 4.59904 14.9284 4.69463 14.9576 4.75952C14.9797 4.80885 15.0413 4.8353 15.0762 4.84677C15.3191 4.76593 16.7308 4.33491 18.2082 4.69299C18.2312 4.69858 18.2519 4.71102 18.2675 4.72875C18.2786 4.74134 18.3747 4.85579 18.3249 4.9925C18.2809 5.11328 18.1476 5.18957 17.9173 5.22571C17.7792 5.24739 17.5993 5.25126 17.3911 5.25581C16.8406 5.2678 16.0941 5.28397 15.2863 5.61403L15.3528 5.84545C15.5143 5.92547 16.0424 6.21723 16.7589 6.92042C16.8154 6.97585 16.8478 7.05296 16.848 7.13194C16.8481 7.21017 16.8178 7.28326 16.7625 7.33765C16.6807 7.41886 16.5906 7.45969 16.5018 7.45977Z" fill="#2D0106"/>
<path d="M11.1991 1.22037C11.1933 1.24973 11.1868 1.27916 11.1795 1.30814C10.7249 1.54969 10.2837 1.66756 9.9093 1.17194C9.9093 1.17194 10.6488 0.36877 11.2313 0.114258C11.2313 0.114258 11.2378 0.161197 11.2447 0.24129C11.2613 0.438135 11.2785 0.834581 11.1991 1.22037Z" fill="#FBB040"/>
<path d="M14.3603 2.55737C14.3588 2.61042 14.3595 2.66309 14.3622 2.71495L13.1827 1.7916C13.1827 1.7916 13.5286 0.953705 14.828 0.896484C14.828 0.896484 14.8173 0.91824 14.7984 0.957505C14.6989 1.17044 14.3783 1.90261 14.3603 2.55737Z" fill="#FBB040"/>
<path d="M14.6997 12.7816C15.5306 19.5912 10.683 21.3807 7.68077 20.4497C7.53719 20.4055 7.39818 20.3547 7.26375 20.2982L6.96272 20.6416L7.44039 21.3158C7.51102 21.4155 7.55518 21.5326 7.55983 21.6542C7.58015 22.2197 6.99503 22.3013 6.99503 22.3013L6.75585 22.7943L6.64946 23.0138C6.32923 22.8039 6.13729 22.1934 6.13107 22.2125C6.12455 22.2316 5.39502 23.0901 5.39502 23.0901C5.06212 22.8738 5.05597 22.435 5.05597 22.435C4.7296 22.696 4.25582 22.6578 4.25582 22.6578C4.19824 22.0534 5.23187 21.5543 5.23187 21.5543C4.80488 21.3807 4.48278 21.1682 4.24045 20.9427C3.40378 20.1651 3.51362 19.2364 3.51362 19.2364C3.4933 19.2265 3.47291 19.2169 3.45259 19.2066C3.44262 19.2017 3.43227 19.1971 3.42223 19.1917C3.41683 19.1894 3.41188 19.1868 3.40648 19.1841C1.26356 18.1147 0.411524 16.1977 0.181944 14.3629C0.181944 14.3625 0.181944 14.3625 0.181944 14.3621C0.181944 14.3618 0.181944 14.3618 0.181944 14.3614C0.070603 13.4704 0.105917 12.5994 0.211485 11.8534C0.286387 11.3231 0.455685 10.8087 0.672219 10.3311V10.3307C0.672593 10.3303 0.672593 10.3303 0.672593 10.3303C1.39717 8.7297 2.64966 7.54193 2.64966 7.54193C1.65134 11.1701 2.49071 13.3369 4.85744 14.289C4.85744 14.289 5.62535 13.5896 7.4077 12.6357C8.99504 11.7863 9.05188 10.4379 9.04535 10.1525C9.04498 10.1304 9.04385 10.1144 9.0434 10.106C9.04303 10.101 9.04265 10.0984 9.04265 10.0984C6.85407 9.76757 6.96924 8.77552 7.36587 8.03799C7.76287 7.30045 7.71796 5.95853 7.71796 5.95853L7.30521 5.64374C6.2685 5.92038 5.45913 5.69791 5.72784 4.42579C5.99664 3.15405 7.62191 3.26856 7.62191 3.26856C7.62191 3.26856 7.82353 2.53409 8.53386 1.54204C9.24419 0.549992 10.2425 1.37038 10.2425 1.37038C11.9032 1.0842 12.4887 1.79961 12.4887 1.79961C13.9957 1.58019 14.2772 2.64547 14.2772 2.64547C14.6857 2.96905 14.9629 3.34903 15.1349 3.77409C15.3277 4.24757 15.3903 4.77761 15.3588 5.34803C15.8195 7.80903 14.4181 8.95367 14.4181 8.95367C14.4139 8.98645 14.4096 9.02005 14.4065 9.05477C14.2677 10.3939 14.6997 12.7816 14.6997 12.7816Z" fill="#8DC63F"/>
<g opacity="0.7">
<path d="M4.13291 20.678C4.17243 20.7726 4.20819 20.8604 4.24043 20.9424C3.40376 20.1648 3.5136 19.2361 3.5136 19.2361C3.49328 19.2262 3.47289 19.2167 3.45257 19.2064L3.47252 19.0835C3.47252 19.0835 3.29475 17.9797 3.60575 17.4249C3.60575 17.4249 3.79694 16.6156 3.96242 16.3974C4.12789 16.1792 4.32103 15.7144 4.49348 15.5507L4.66278 15.3508L4.95998 15.0898C4.95998 15.0898 2.98644 17.9419 4.13291 20.678Z" fill="white"/>
</g>
<g opacity="0.7">
<path d="M2.53568 7.98307C2.21043 8.31618 1.26512 9.34906 0.672654 10.6578C0.672654 10.6578 0.672654 10.6578 0.672279 10.6581V10.6585C0.455745 11.1362 0.286372 11.6505 0.211545 12.1809C0.157787 12.5628 0.122098 12.9772 0.1152 13.4106C0.105228 12.8589 0.143991 12.3304 0.211545 11.8535C0.286447 11.3232 0.455745 10.8088 0.672279 10.3311V10.3307C0.672654 10.3304 0.672654 10.3304 0.672654 10.3304C1.39723 8.72977 2.64972 7.54199 2.64972 7.54199C2.60864 7.6916 2.57062 7.83845 2.53568 7.98307Z" fill="white"/>
</g>
<g opacity="0.7">
<path d="M9.04544 10.4798C9.05197 10.7652 8.99513 12.1136 7.40779 12.9629C5.62544 13.9168 4.85753 14.6162 4.85753 14.6162C3.10239 13.9103 2.18707 12.5363 2.2385 10.3936C2.28462 12.3498 3.19379 13.6196 4.85753 14.2888C4.85753 14.2888 5.62544 13.5894 7.40779 12.6355C8.68983 11.9495 8.97361 10.9376 9.03157 10.4237C9.03502 10.4244 9.03884 10.4252 9.04274 10.4256C9.04274 10.4256 9.04312 10.4283 9.04349 10.4332C9.04387 10.4416 9.04507 10.4576 9.04544 10.4798Z" fill="white"/>
</g>
<g opacity="0.7">
<path d="M15.4488 6.47438C15.4404 6.2256 15.4119 5.95969 15.359 5.67583C15.3644 5.57927 15.3671 5.48353 15.3667 5.38965C15.4377 5.78527 15.4607 6.14663 15.4488 6.47438Z" fill="white"/>
</g>
<g opacity="0.7">
<path d="M15.3667 5.38949C15.364 5.37578 15.3616 5.36199 15.359 5.34828C15.361 5.31282 15.3625 5.27728 15.3636 5.24219C15.3655 5.29106 15.3667 5.33986 15.3667 5.38949Z" fill="white"/>
</g>
<g opacity="0.7">
<path d="M15.2956 7.46429C15.3931 6.97054 15.4147 6.37271 15.2822 5.66602C15.3417 4.58352 15.0637 3.6472 14.2006 2.96346C14.2006 2.96346 13.9191 1.89818 12.4121 2.11752C12.4121 2.11752 11.8265 1.40212 10.1659 1.68829C10.1659 1.68829 9.16758 0.867983 8.45725 1.85996C7.97305 2.5361 7.72502 3.09273 7.61638 3.37854C7.77263 3.37049 7.97387 3.36788 8.23187 3.37354C9.58805 3.40372 10.8528 4.36671 10.8528 4.36671C9.03434 3.49067 7.54538 3.58641 7.54538 3.58641L7.5408 3.58603L7.5354 3.58566C7.40637 3.57918 6.06556 3.5353 5.70349 4.55707C5.71039 4.51475 5.71849 4.47087 5.72808 4.42579C5.99688 3.15405 7.62215 3.26856 7.62215 3.26856C7.62215 3.26856 7.82377 2.53409 8.5341 1.54204C9.24443 0.549992 10.2427 1.37038 10.2427 1.37038C11.9034 1.0842 12.4889 1.79961 12.4889 1.79961C13.9959 1.58019 14.2774 2.64547 14.2774 2.64547C15.1405 3.32921 15.4186 4.26553 15.359 5.34803C15.521 6.21401 15.4527 6.91682 15.2956 7.46429Z" fill="white"/>
</g>
<path d="M7.68082 20.4498C7.58522 20.399 7.4942 20.3483 7.40782 20.2983C5.52373 19.2048 6.94364 16.788 8.87647 14.7597C10.809 12.731 10.5832 9.74223 10.5832 9.74223L11.3849 9.77121C13.0648 10.1117 14.171 9.22061 14.4067 9.05469C14.2677 10.3939 14.6996 12.7817 14.6996 12.7817C15.5305 19.5913 10.683 21.3808 7.68082 20.4498Z" fill="#D7DF23"/>
<path d="M3.53284 19.1365C3.53284 19.1365 3.48756 19.1541 3.40651 19.1842C0.223059 17.5951 -0.111414 14.1363 0.211512 11.8534C0.286414 11.3231 0.455712 10.8087 0.672246 10.3311C0.650353 10.4035 -0.973049 15.8163 3.47249 17.8439L3.53284 19.1365Z" fill="#D7DF23"/>
<path d="M8.17772 6.30664C8.17772 6.30664 8.31957 7.22999 8.05078 7.98042C8.05078 7.98042 8.41944 7.18186 8.87553 7.20094C9.33154 7.22001 9.57019 7.30003 9.57019 7.30003C9.57019 7.30003 9.83306 7.17396 10.1322 7.1829C10.4314 7.19185 10.8376 7.50626 10.8376 7.50626L11.3401 6.56868C10.0692 6.89665 9.01409 6.81127 8.17772 6.30664Z" fill="#2D0106"/>
<path d="M8.90252 6.62207C8.90252 6.62207 8.87471 7.02254 9.05233 7.31818C9.05233 7.31818 9.25626 6.9788 9.45428 6.73592" fill="#FDFDFD"/>
<path d="M6.20935 5.69629C6.20935 5.69629 6.32939 6.12395 6.73254 6.49916C6.73254 6.49916 6.94405 6.23459 6.91833 5.7246" fill="#FDFDFD"/>
<path d="M5.395 23.2047C5.37325 23.2047 5.35136 23.1986 5.33202 23.1861C5.09974 23.0351 5.00534 22.7962 4.96703 22.6287C4.63593 22.8008 4.26472 22.7736 4.24657 22.7721C4.19087 22.7676 4.14648 22.7241 4.14116 22.6688C4.0937 22.1711 4.65625 21.758 4.97385 21.5662C4.10689 21.154 3.72286 20.5755 3.55281 20.148C3.40331 19.7719 3.39026 19.4515 3.39409 19.3062C3.38096 19.2998 3.36792 19.2934 3.35487 19.2869C1.89987 18.5605 0.900574 17.3923 0.384433 15.8146C-0.131559 14.2366 -0.0168444 12.6456 0.0974206 11.8375C0.167599 11.3404 0.325126 10.8189 0.565577 10.2877C0.566777 10.2847 0.568201 10.2817 0.569626 10.2788C1.29533 8.67849 2.55749 7.47112 2.57016 7.45913C2.60765 7.42359 2.66426 7.41726 2.70872 7.44363C2.75318 7.47001 2.77448 7.52253 2.76083 7.57215C2.27745 9.32878 2.22362 10.779 2.60075 11.8822C2.95569 12.9206 3.70734 13.6852 4.83529 14.1561C5.0417 13.9806 5.82282 13.354 7.35317 12.535C8.81252 11.7542 8.92754 10.532 8.93024 10.1966C7.96588 10.0373 7.36022 9.72493 7.12952 9.26746C6.95122 8.91378 6.99658 8.48202 7.26432 7.9841C7.59835 7.36361 7.60667 6.26949 7.60389 6.01587L7.27984 5.76874C6.619 5.93518 6.11927 5.88124 5.83249 5.61168C5.57074 5.36566 5.49764 4.95878 5.6152 4.40245C5.8618 3.23568 7.16738 3.15224 7.53432 3.15224C7.53552 3.15224 7.53664 3.15224 7.53784 3.15224C7.61304 2.92738 7.85799 2.28879 8.44011 1.47585C8.66212 1.16576 8.93451 0.987692 9.24964 0.946564C9.72162 0.885097 10.1399 1.15287 10.2729 1.24943C11.708 1.016 12.3604 1.51423 12.5315 1.67851C13.9056 1.50476 14.304 2.37969 14.3758 2.57765C15.1786 3.22689 15.5381 4.13125 15.4747 5.34085C15.714 6.63591 15.4386 7.56902 15.1648 8.12439C14.9158 8.62932 14.6272 8.91952 14.5272 9.01101C14.5251 9.02874 14.5231 9.04677 14.5215 9.0651C14.3856 10.3745 14.8088 12.7381 14.8131 12.7618C14.8135 12.764 14.8138 12.7661 14.8141 12.7683C15.2803 16.5901 13.9625 18.5642 12.7748 19.5472C11.3853 20.6973 9.37238 21.0946 7.64648 20.5594C7.52877 20.5231 7.41128 20.4816 7.29634 20.4358L7.10897 20.6496L7.53462 21.2504C7.62114 21.3724 7.66965 21.5107 7.6749 21.6504C7.69237 22.1359 7.31906 22.3465 7.07358 22.4035L6.75321 23.0639C6.73873 23.0936 6.71212 23.1157 6.6801 23.1245C6.64809 23.1332 6.61375 23.1279 6.58601 23.1098C6.3538 22.9576 6.1908 22.6381 6.10068 22.4327C5.99661 22.5584 5.81224 22.7769 5.48302 23.1644C5.46045 23.1907 5.42791 23.2047 5.395 23.2047ZM5.05603 22.3206C5.07267 22.3206 5.08939 22.3242 5.10506 22.3315C5.14495 22.3501 5.17059 22.3897 5.17119 22.4335C5.17127 22.4365 5.17996 22.7393 5.3791 22.9315C5.63905 22.6252 5.99451 22.2041 6.0332 22.1523C6.05322 22.1203 6.08831 22.0993 6.12715 22.0978C6.20917 22.0937 6.23541 22.1571 6.26241 22.2232C6.30889 22.3371 6.43538 22.6471 6.61037 22.8309L6.89124 22.2518C6.90796 22.2174 6.94087 22.1935 6.97896 22.1882C7.02792 22.181 7.46069 22.1042 7.44464 21.6585C7.44104 21.5634 7.407 21.4677 7.3462 21.382L6.86852 20.7077C6.838 20.6646 6.841 20.6064 6.87587 20.5666L7.1769 20.2232C7.20959 20.1859 7.26282 20.1736 7.30863 20.1929C7.44097 20.2486 7.57765 20.2982 7.71486 20.3405C9.3681 20.8532 11.2962 20.4726 12.6272 19.371C13.7706 18.4246 15.0383 16.5161 14.5857 12.7987C14.5609 12.6612 14.1543 10.3706 14.2921 9.04305C14.2951 9.00855 14.2995 8.97346 14.3039 8.93919C14.3076 8.91021 14.3224 8.88376 14.345 8.86528C14.3482 8.86267 14.6855 8.58096 14.9634 8.01211C15.2197 7.48744 15.4767 6.60298 15.2457 5.36894C15.2441 5.36 15.2435 5.35083 15.2439 5.34174C15.3072 4.1913 14.9675 3.33858 14.2055 2.73493C14.1861 2.71951 14.1722 2.69835 14.1659 2.67451C14.1552 2.63554 13.8867 1.71181 12.5054 1.91276C12.4653 1.91864 12.4249 1.903 12.3994 1.8717C12.3943 1.86567 11.8248 1.21367 10.2622 1.48301C10.2291 1.48874 10.195 1.47973 10.1691 1.45842C10.165 1.45507 9.73887 1.11234 9.27813 1.17336C9.02958 1.20622 8.81072 1.35255 8.62763 1.60825C7.93957 2.56923 7.73496 3.29149 7.73301 3.29864C7.71846 3.35124 7.66837 3.38678 7.61372 3.38261C7.55164 3.37836 6.08523 3.29142 5.84051 4.44924C5.74057 4.92242 5.79103 5.25748 5.99069 5.44516C6.22079 5.66152 6.67703 5.69274 7.27527 5.53308C7.30983 5.52391 7.34687 5.53114 7.37529 5.55282L7.78804 5.86761C7.81541 5.88847 7.8319 5.92036 7.83302 5.95463C7.8349 6.01066 7.87434 7.33597 7.46736 8.09191C7.23688 8.52046 7.1925 8.88145 7.33533 9.16479C7.53806 9.56683 8.11831 9.84287 9.05987 9.98518C9.11221 9.99307 9.1524 10.0354 9.15727 10.0878C9.15884 10.105 9.19438 10.5151 9.00207 11.0479C8.82565 11.5368 8.41537 12.2265 7.46226 12.7365C5.71665 13.6707 4.94274 14.3664 4.93516 14.3734C4.9024 14.4032 4.85531 14.4116 4.81415 14.395C3.5849 13.9006 2.76675 13.0799 2.3825 11.9559C2.02163 10.9002 2.03723 9.55006 2.42816 7.93775C2.01533 8.38993 1.26909 9.2916 0.777612 10.3773C0.777237 10.3781 0.776787 10.379 0.776412 10.3799C0.544434 10.8919 0.392755 11.3931 0.325501 11.8694C0.150504 13.1071 -0.141007 17.2853 3.45819 19.082C3.49275 19.0991 3.52784 19.1164 3.56338 19.1333C3.60784 19.1545 3.63379 19.2013 3.62809 19.2499C3.62134 19.3094 3.48361 20.7201 5.27556 21.4486C5.31762 21.4656 5.34559 21.5057 5.34701 21.5508C5.34851 21.5959 5.32309 21.6377 5.28231 21.6574C5.03623 21.7766 4.43649 22.1503 4.37403 22.5441C4.52091 22.538 4.78663 22.5036 4.98382 22.3459C5.00467 22.3292 5.03023 22.3206 5.05603 22.3206ZM6.02218 22.1754C6.02218 22.1755 6.0221 22.1757 6.02203 22.1758C6.02203 22.1757 6.0221 22.1755 6.02218 22.1754ZM6.02233 22.1749C6.02233 22.175 6.02225 22.1751 6.02225 22.1752C6.02225 22.1752 6.02225 22.175 6.02233 22.1749Z" fill="#2D0106"/>
<path d="M4.93018 14.3779L4.34558 14.7024L4.78487 14.2002L4.93018 14.3779Z" fill="#2D0106"/>
<path d="M3.40012 19.2556C3.25017 17.7953 3.72425 16.2438 4.79357 15.2109C4.5472 15.48 4.33164 15.7756 4.15762 16.0931C3.80995 16.725 3.62228 17.4387 3.57939 18.1551C3.5596 18.5078 3.56822 18.8699 3.6273 19.217C3.62723 19.217 3.40012 19.2556 3.40012 19.2556Z" fill="#2D0106"/>
<path d="M9.06149 9.98571C9.34393 10.018 9.63956 9.98355 9.90723 9.88743C10.0857 9.81621 10.2537 9.72814 10.4176 9.62771C10.6708 9.46677 10.8753 9.25682 11.0649 9.01758C10.9646 9.31031 10.7832 9.58718 10.5455 9.7943C10.1816 10.1264 9.59293 10.2517 9.10955 10.221C9.08151 10.2188 9.05654 10.2165 9.02393 10.2116L9.06149 9.98571Z" fill="#2D0106"/>
<path d="M14.5386 9.00031C14.1148 9.33708 13.6005 9.55635 13.0648 9.63123C13.442 9.52312 13.794 9.33745 14.0988 9.0933C14.1951 9.01603 14.2956 8.92715 14.3763 8.83789L14.5386 9.00031Z" fill="#2D0106"/>
<path d="M10.3758 9.67773C10.8405 9.73995 11.3184 9.74911 11.7881 9.74226C11.4355 9.80581 11.0807 9.85655 10.7231 9.88628C10.6025 9.89581 10.4847 9.90416 10.3587 9.90602L10.3758 9.67773Z" fill="#2D0106"/>
<path d="M11.2914 1.3355L11.0677 1.28096C11.1591 0.910961 11.1488 0.5093 11.133 0.292041C10.6065 0.588425 10.0008 1.24221 9.99419 1.24944L9.82422 1.09484C9.85511 1.06131 10.5873 0.270732 11.185 0.0096631C11.218 -0.00471654 11.2559 -0.00300291 11.2874 0.014506C11.3189 0.0319404 11.3404 0.0630838 11.3454 0.0985487C11.3492 0.124998 11.4352 0.753009 11.2914 1.3355Z" fill="#2D0106"/>
<path d="M14.247 2.72104C14.2131 2.09079 14.4947 1.35907 14.641 1.02596C13.5943 1.14382 13.3014 1.80581 13.2888 1.83554L13.076 1.74807C13.0913 1.71111 13.4658 0.84215 14.8228 0.782322C14.8635 0.780682 14.9024 0.800352 14.9245 0.834401C14.9467 0.86845 14.9491 0.911664 14.9308 0.947948C14.9259 0.957783 14.4358 1.94096 14.4771 2.70882L14.247 2.72104Z" fill="#2D0106"/>
<path d="M8.54468 4.63467L8.74629 4.60859C8.92256 4.72117 9.07566 4.72616 9.19983 4.59697C9.21857 4.57745 9.22719 4.55271 9.22367 4.52813C9.2146 4.46517 9.17523 4.34939 9.00789 4.3695C8.77988 4.39692 8.65032 4.52463 8.54468 4.63467Z" fill="#2D0106"/>
<path d="M8.00125 8.19578C7.77564 7.84799 7.52132 7.81543 7.52132 7.81543C7.43975 8.18423 7.54501 8.75108 7.55476 8.77037L8.05088 9.20832" fill="#FDFDFD"/>
<path d="M7.33683 4.26522L7.14864 4.18885C6.94928 4.25293 6.8 4.21888 6.71318 4.06249C6.70005 4.03887 6.6981 4.0128 6.70785 3.98992C6.73282 3.93136 6.8006 3.82944 6.95723 3.89135C7.17061 3.97562 7.26306 4.132 7.33683 4.26522Z" fill="#2D0106"/>
<path d="M10.9155 7.59036C10.9155 7.59036 10.3802 6.91273 9.72747 7.37698C9.72747 7.37698 8.95955 6.92539 8.52439 7.40238C8.08922 7.87937 7.72858 8.60468 8.11689 9.20863C8.11689 9.20863 9.50044 9.51522 9.8667 9.2283C10.233 8.94138 10.6401 8.22411 10.6891 8.11816" fill="#FF67A0"/>
<path d="M9.48425 9.38047C9.48425 9.38047 9.36909 8.8441 9.58982 8.36719C9.58982 8.36719 10.0362 8.63757 10.1322 8.96815" fill="#FDFDFD"/>
<path d="M9.39521 9.49507C9.35637 9.49507 9.31709 9.49246 9.2769 9.4871C9.16091 9.4716 9.03975 9.46117 8.91154 9.45014C8.42096 9.40804 7.86501 9.36029 7.5543 8.978C7.34377 8.71894 7.27299 8.34604 7.33769 7.83791L7.56622 7.86667C7.50977 8.30968 7.5645 8.62611 7.7335 8.83413C7.9825 9.14057 8.46482 9.18199 8.93133 9.222C9.05662 9.23273 9.18618 9.24391 9.30764 9.26015C10.1027 9.36617 10.6423 7.97656 10.8454 7.45323C10.9742 7.12131 11.1395 6.85339 11.2774 6.66369C10.11 7.01655 9.22502 6.86776 8.66876 6.66548C7.99434 6.42028 7.64772 6.0517 7.63333 6.03613L7.80263 5.88086C7.80585 5.88436 8.13365 6.22999 8.76008 6.45485C9.33816 6.66228 10.2979 6.8066 11.5869 6.3159C11.6379 6.29645 11.6957 6.3153 11.725 6.36105C11.7545 6.4068 11.7476 6.46677 11.7086 6.5047C11.7047 6.5085 11.3066 6.90122 11.0604 7.53549C10.8486 8.08169 10.2999 9.49492 9.39521 9.49507Z" fill="#2D0106"/>
<path d="M8.036 9.25926C7.52353 8.46219 8.22584 7.5869 8.45324 7.3376C8.86966 6.8811 9.52819 7.16572 9.72208 7.26473C10.2783 6.91172 10.7922 7.27911 10.991 7.53072L10.8401 7.64866C10.8205 7.624 10.3523 7.04926 9.78341 7.45383C9.75244 7.47588 9.71136 7.4776 9.67867 7.45837C9.67169 7.45435 8.97246 7.05262 8.59555 7.46575C8.39124 7.68972 7.75866 8.47352 8.19787 9.15659L8.036 9.25926Z" fill="#2D0106"/>
<path d="M9.77947 7.45631C9.55642 7.58349 9.36635 7.78116 9.24346 8.00668C9.19923 8.0841 9.16774 8.16799 9.13879 8.25367C9.16234 8.07285 9.22052 7.89373 9.31177 7.73437C9.40616 7.56762 9.52478 7.41883 9.67555 7.2959C9.67555 7.29597 9.77947 7.45631 9.77947 7.45631Z" fill="#2D0106"/>
<path d="M9.37168 9.40453C9.36665 9.38114 9.25119 8.82517 9.48527 8.3195C9.49899 8.28985 9.52485 8.26742 9.55634 8.25789C9.58776 8.24842 9.62187 8.2526 9.64992 8.26966C9.66971 8.28165 10.1358 8.56746 10.243 8.93656L10.0217 9.00004C9.97029 8.82324 9.78233 8.64889 9.64392 8.54384C9.51136 8.94483 9.59601 9.35223 9.59698 9.35677L9.37168 9.40453Z" fill="#2D0106"/>
<path d="M7.45189 8.82208C7.42842 8.77574 7.3221 8.18305 7.40877 7.79107C7.4216 7.7331 7.47678 7.69458 7.53601 7.70211C7.54853 7.70367 7.84642 7.74592 8.09804 8.13395L7.90437 8.258C7.79948 8.09632 7.69099 8.01325 7.61354 7.971C7.5816 8.29391 7.65343 8.69609 7.66422 8.73558C7.664 8.73484 7.66205 8.72791 7.65755 8.71904L7.45189 8.82208Z" fill="#2D0106"/>
<path d="M6.73254 6.61342C6.70338 6.61342 6.67526 6.60247 6.65382 6.58251C6.232 6.18986 6.10371 5.74558 6.09839 5.7268L6.32025 5.66504C6.3213 5.66862 6.41637 5.99272 6.70713 6.31033C6.75759 6.19656 6.81697 6.00136 6.80325 5.73008L7.03335 5.71861C7.06102 6.26548 6.83249 6.55792 6.82274 6.57014C6.80272 6.59517 6.77311 6.61074 6.74102 6.61305C6.73817 6.61328 6.73532 6.61342 6.73254 6.61342Z" fill="#2D0106"/>
<path d="M9.05234 7.3939C9.02527 7.3939 9.00023 7.37975 8.98636 7.35673C8.79862 7.0441 8.82471 6.63357 8.82591 6.61621L8.97916 6.62664C8.97894 6.62985 8.96162 6.90924 9.06029 7.15981C9.13811 7.03777 9.26662 6.84427 9.39461 6.68736L9.51397 6.78348C9.32181 7.01914 9.12034 7.35345 9.11832 7.3568C9.10445 7.37975 9.07941 7.3939 9.05234 7.3939Z" fill="#2D0106"/>
<path d="M7.20183 20.395C6.83871 20.1117 6.47815 19.8187 6.17584 19.4717C6.43961 19.6907 6.73232 19.8672 7.02811 20.0381C7.12655 20.0943 7.22672 20.1499 7.32569 20.2018L7.20183 20.395Z" fill="#2D0106"/>
<path d="M6.99854 20.7509L6.4126 20.8201L6.92724 20.5332L6.99854 20.7509Z" fill="#2D0106"/>
<path d="M5.20111 21.4443C5.56992 21.395 5.96168 21.3938 6.30215 21.5546C5.95673 21.4716 5.58904 21.5483 5.26259 21.6649L5.20111 21.4443Z" fill="#2D0106"/>
<path d="M6.88 22.2936L7.02209 21.8975L7.10981 22.3089L6.88 22.2936Z" fill="#2D0106"/>
<path d="M6.02722 22.1626L6.30216 21.8594L6.23476 22.262L6.02722 22.1626Z" fill="#2D0106"/>
<path d="M4.94336 22.4112C4.94636 22.4109 4.95318 22.3874 4.95483 22.3838C5.01669 22.2005 5.16072 22.0527 5.33271 21.9697C5.27348 22.04 5.22355 22.1186 5.19521 22.2043C5.16732 22.2832 5.16214 22.3627 5.16949 22.4443L5.16852 22.4598L4.94336 22.4112Z" fill="#2D0106"/>
<path d="M14.5249 11.1902C13.2895 11.8215 11.7612 11.7788 10.5281 11.1672C10.8418 11.298 11.1679 11.3968 11.4999 11.46C12.1597 11.5836 12.8498 11.555 13.4949 11.3736C13.8109 11.2839 14.1235 11.1643 14.4043 10.9951L14.5249 11.1902Z" fill="#2D0106"/>
<path d="M14.8302 13.8887C13.4313 14.458 11.2495 13.9959 10.0539 13.1289C11.0425 13.7734 12.4087 14.0461 13.578 13.9657C13.9805 13.9326 14.3795 13.8462 14.7367 13.6794L14.8302 13.8887Z" fill="#2D0106"/>
<path d="M14.4908 16.7975C12.6965 17.0811 10.9574 16.3985 9.60425 15.249C10.6308 16.0346 11.8646 16.61 13.1719 16.6647C13.6011 16.685 14.0313 16.6517 14.4518 16.5719L14.4908 16.7975Z" fill="#2D0106"/>
<path d="M12.8063 19.5047C11.1171 19.9126 9.36688 19.4635 8.16222 18.2028C7.77542 17.805 7.45219 17.346 7.22449 16.8438C7.46951 17.3378 7.80698 17.7823 8.20286 18.1624C8.98742 18.9233 10.0417 19.408 11.1372 19.4594C11.6805 19.4912 12.2251 19.4201 12.7502 19.2826C12.7503 19.2826 12.8063 19.5047 12.8063 19.5047Z" fill="#2D0106"/>
<path d="M2.3121 18.5924C2.29088 18.1642 2.41939 17.7411 2.6183 17.3662C2.51139 17.7032 2.46483 18.0635 2.51199 18.4141C2.51829 18.4582 2.52706 18.5111 2.53868 18.5512L2.3121 18.5924Z" fill="#2D0106"/>
<path d="M0.952576 17.03C1.03955 16.7085 1.18148 16.4131 1.35558 16.1318C1.268 16.3957 1.20825 16.6689 1.18628 16.9454C1.18358 16.9834 1.18103 17.0241 1.18126 17.0577L0.952576 17.03Z" fill="#2D0106"/>
<path d="M0.296894 15.5255C0.289471 15.4915 0.295244 15.4578 0.303117 15.4269C0.380718 15.155 0.503305 14.8956 0.644112 14.6523C0.573034 14.921 0.517251 15.1975 0.518826 15.4744C0.521 15.4905 0.5216 15.4709 0.518826 15.4642L0.296894 15.5255Z" fill="#2D0106"/>
<path d="M8.14338 12.1203C6.77362 12.292 6.73898 10.5464 6.73898 10.5464C6.73898 10.5464 6.14382 12.0821 6.03825 12.451C5.93268 12.8198 5.6255 12.8548 5.6255 12.5496C5.6255 12.2443 6.23986 10.3271 6.32624 9.87644C6.41261 9.4259 6.32624 8.5337 6.00946 8.81034C5.69268 9.08698 3.89765 11.7388 3.63524 11.9359C3.37289 12.133 3.28329 11.8786 3.28329 11.8786C3.91932 10.7274 5.24822 9.0004 5.5395 8.62601C5.57429 8.58123 5.57939 8.52051 5.55262 8.47059C5.52855 8.42574 5.48267 8.39683 5.43161 8.39444C4.85189 8.36658 3.22286 9.3961 2.49618 9.8003C2.18308 9.97442 1.9541 10.0066 1.7926 9.98358C1.63297 9.96086 1.60268 9.74524 1.74836 9.67662C3.26372 8.96293 4.46096 7.61675 5.66389 7.75161C6.9406 7.89466 7.27657 10.4511 7.59335 11.092C7.91012 11.7329 8.66717 11.4843 8.66717 11.4843C8.50852 11.725 8.34132 11.9503 8.14338 12.1203Z" fill="#8DC63F"/>
<g opacity="0.7">
<path d="M8.66724 11.4843C8.60695 11.5759 8.54555 11.6652 8.48137 11.7499C8.23642 11.78 7.811 11.7594 7.59327 11.3191C7.27649 10.6781 6.94052 8.12166 5.66381 7.97861C4.46088 7.8439 3.26364 9.19007 1.74813 9.90391C1.72894 9.91308 1.71282 9.92455 1.69977 9.93789C1.62877 9.86465 1.63799 9.72845 1.74813 9.67652C3.26364 8.96305 4.46088 7.61688 5.66381 7.75159C6.94052 7.89464 7.27649 10.4511 7.59327 11.0921C7.91004 11.7327 8.66724 11.4843 8.66724 11.4843Z" fill="white"/>
</g>
<path d="M5.76441 12.87C5.75346 12.87 5.74282 12.8693 5.73239 12.8679C5.6299 12.8536 5.51024 12.7618 5.51024 12.5497C5.51024 12.368 5.67204 11.7929 5.91894 10.9362C6.05232 10.4733 6.17836 10.036 6.213 9.85522C6.28872 9.46034 6.20842 8.93157 6.11928 8.87376C6.11425 8.87562 6.10308 8.88113 6.08539 8.89655C5.93791 9.02538 5.3893 9.78556 4.90525 10.4563C4.24905 11.3657 3.84072 11.9251 3.70464 12.0274C3.58745 12.1154 3.47619 12.1446 3.37414 12.1139C3.23266 12.0714 3.18003 11.9324 3.17448 11.9167C3.16368 11.886 3.16646 11.8522 3.1822 11.8237C3.82565 10.6591 5.18266 8.89752 5.44823 8.55621C5.45528 8.5472 5.45625 8.53483 5.45086 8.52462C5.44583 8.51531 5.43654 8.50942 5.42596 8.5089C4.98652 8.48878 3.76417 9.1989 3.0336 9.62381C2.84743 9.73206 2.68668 9.82557 2.55239 9.9003C2.26058 10.0626 1.99944 10.1288 1.77616 10.097C1.65275 10.0794 1.5609 9.98881 1.54223 9.8661C1.52364 9.74384 1.58662 9.62619 1.69901 9.57329C2.24139 9.31789 2.74119 8.98104 3.22449 8.6553C4.06993 8.08556 4.86836 7.54748 5.67676 7.63793C6.71594 7.75438 7.15951 9.28883 7.45297 10.3041C7.54429 10.6201 7.62324 10.893 7.69664 11.0416C7.96454 11.5835 8.60416 11.3843 8.63123 11.3756C8.67787 11.3606 8.72885 11.3763 8.75847 11.4149C8.78816 11.4535 8.79026 11.5065 8.76349 11.5471C8.61938 11.7658 8.44199 12.0152 8.21871 12.2071C8.20154 12.2218 8.18032 12.2312 8.15783 12.234C7.77559 12.282 7.45289 12.1955 7.19849 11.9769C6.89506 11.7163 6.75171 11.3199 6.68415 11.0106C6.50031 11.4923 6.2175 12.2435 6.14912 12.4825C6.07129 12.7537 5.90177 12.87 5.76441 12.87ZM6.12078 8.64353C6.16734 8.64353 6.20497 8.65858 6.23024 8.67296C6.51156 8.8327 6.49379 9.61405 6.43935 9.89806C6.40269 10.0891 6.2753 10.5312 6.14042 10.9993C5.96235 11.6174 5.74064 12.3866 5.74064 12.5497C5.74064 12.6148 5.75946 12.6405 5.76426 12.6411C5.79185 12.6449 5.87957 12.587 5.92741 12.4199C6.0332 12.0503 6.60708 10.5684 6.63144 10.5055C6.65124 10.4544 6.70462 10.4244 6.75883 10.4339C6.81304 10.4434 6.853 10.4897 6.85405 10.5444C6.8542 10.5528 6.87782 11.3998 7.34957 11.8043C7.54481 11.9717 7.79509 12.0412 8.0941 12.0109C8.21398 11.9032 8.32075 11.775 8.41582 11.6457C8.10204 11.6646 7.70092 11.5698 7.48978 11.1426C7.40738 10.9759 7.32581 10.6939 7.23148 10.3675C6.95489 9.41065 6.5369 7.96478 5.65082 7.86547C4.92692 7.78426 4.19799 8.27577 3.35367 8.84477C2.86317 9.17536 2.35596 9.51719 1.79753 9.7802C1.76761 9.79428 1.76821 9.82102 1.76993 9.8319C1.77226 9.84725 1.78088 9.86647 1.80877 9.87042C1.98085 9.89494 2.19303 9.83779 2.43978 9.70055C2.57219 9.62686 2.73204 9.53388 2.91716 9.42629C3.76642 8.93239 4.92879 8.25528 5.43698 8.28032C5.52801 8.28471 5.61116 8.33702 5.65404 8.41696C5.7021 8.50644 5.69281 8.61611 5.63043 8.69628C5.37108 9.0297 4.06273 10.728 3.41553 11.8776C3.42288 11.8854 3.43158 11.8922 3.44125 11.8949C3.46749 11.9023 3.51398 11.8836 3.56563 11.8448C3.68372 11.7562 4.25715 10.9615 4.71796 10.3229C5.25689 9.57605 5.76598 8.8707 5.93326 8.7246C6.00389 8.6629 6.06807 8.64353 6.12078 8.64353Z" fill="#2D0106"/>
<path d="M15.5561 14.6874L15.1414 15.2936L15.3478 14.5898L15.5561 14.6874Z" fill="#2D0106"/>
<path d="M16.2376 15.7631C16.1281 15.4707 16.0714 15.1282 16.2037 14.8359C16.1517 15.126 16.2756 15.4177 16.4386 15.6513L16.2376 15.7631Z" fill="#2D0106"/>
<path d="M17.3698 14.9533C17.3413 14.7808 17.2638 14.6126 17.1444 14.4821C17.1034 14.4358 17.0536 14.3981 17.0004 14.3623C17.0612 14.3806 17.1235 14.403 17.1801 14.4372C17.3574 14.5409 17.4986 14.703 17.5902 14.8865L17.3698 14.9533Z" fill="#2D0106"/>
<path d="M18.11 15.3914C18.1916 15.2218 18.2491 15.0286 18.2622 14.8384C18.2656 14.7732 18.2625 14.7072 18.2515 14.6406C18.3425 14.8274 18.3601 15.0429 18.3515 15.2487C18.3477 15.3197 18.3424 15.3869 18.3289 15.4626L18.11 15.3914Z" fill="#2D0106"/>
<path d="M12.6904 21.6596L11.9705 21.5452L12.6904 21.4307V21.6596Z" fill="#2D0106"/>
<path d="M10.7244 22.0587L11.1833 21.793L10.8808 22.2267L10.7244 22.0587Z" fill="#2D0106"/>
<path d="M13.2984 22.8133C13.0707 22.5635 12.8294 22.3233 12.5848 22.0889C12.8793 22.2653 13.1694 22.4465 13.4519 22.6426C13.4519 22.6426 13.2984 22.8133 13.2984 22.8133Z" fill="#2D0106"/>
<g opacity="0.3">
<path d="M17.0676 16.1742C16.767 16.2982 16.3381 15.7069 16.3381 15.7069C16.3381 15.7069 15.3855 17.7539 14.5192 16.5257C14.5853 16.2715 14.6966 15.8691 14.6966 15.8691L14.7834 14.7393C14.7834 14.7393 15.0073 16.2792 15.4519 15.8786C15.8965 15.478 16.166 15.0964 16.166 15.0964C16.166 15.0964 16.3445 14.6958 16.3956 14.966C16.4467 15.2365 16.9074 15.6306 16.9074 15.6306C16.9074 15.6306 16.9604 15.6749 17.0226 15.7467C17.0226 15.7467 17.0226 15.7467 17.0226 15.747C17.1141 15.919 17.2017 16.119 17.0676 16.1742Z" fill="#3D1D55"/>
</g>
<g opacity="0.3">
<path d="M18.4691 16.1746L18.2195 15.4275C18.2195 15.4275 17.8228 16.0251 17.4197 16.1746C17.4197 16.1746 17.5042 15.9163 17.5448 15.6187L17.6139 15.5165C17.6139 15.5165 18.1362 14.8106 17.9956 14.3623C17.9956 14.3623 18.2271 14.7561 18.2575 14.9198C18.2882 15.0838 18.7858 15.7157 18.8161 14.7576C18.8177 14.7035 18.8207 14.6588 18.825 14.6229C18.9916 15.1703 18.7878 15.8072 18.4691 16.1746Z" fill="#3D1D55"/>
</g>
<g opacity="0.3">
<path d="M11.1991 1.22029C10.9594 1.24622 10.7065 1.24622 10.6811 1.24622C10.6362 1.24622 11.1737 0.247693 11.1737 0.247693L11.2447 0.241211C11.2613 0.438056 11.2785 0.834502 11.1991 1.22029Z" fill="#3D1D55"/>
</g>
<g opacity="0.3">
<path d="M14.7984 0.957031C14.699 1.16997 14.3783 1.90214 14.3603 2.5569C14.2617 2.51838 14.1937 2.45162 14.1937 2.45162L13.868 1.98991C14.0085 1.41107 14.7984 0.957031 14.7984 0.957031Z" fill="#3D1D55"/>
</g>
<g opacity="0.3">
<path d="M5.77358 4.39453C5.77358 4.39453 6.01335 5.31028 7.01924 5.03364C8.02521 4.757 7.5548 5.41519 8.74514 5.84442C9.93547 6.27365 11.3375 5.69816 11.2588 4.94774C11.2588 4.94774 12.3192 5.53276 11.7177 6.4231H11.5385C11.5385 6.4231 9.89446 7.08762 8.66709 6.4994L8.33134 6.39285L8.294 7.09075L7.74585 6.65832V6.09789L7.37403 5.69645C7.37403 5.69645 6.72938 5.93829 6.30914 5.722C5.88881 5.50579 5.66321 5.33696 5.6794 4.97329" fill="#3D1D55"/>
</g>
<g opacity="0.3">
<path d="M14.6997 12.7823C15.5306 19.5918 10.683 21.3813 7.68077 20.4503C7.53718 20.4061 7.39818 20.3553 7.26374 20.2989L6.96271 20.6423L7.44039 21.3165C7.51102 21.4161 7.55518 21.5332 7.55983 21.6549C7.58015 22.2203 6.99503 22.302 6.99503 22.302L6.75585 22.795L6.57268 22.8682L6.58535 22.1433C6.58535 22.1433 6.81576 21.6408 6.57575 21.2306C6.33575 20.8204 5.99018 20.7441 6.21676 20.5342C6.44289 20.3243 6.23978 20.2957 5.76713 19.7425C5.29447 19.1892 5.67843 18.7219 5.67843 18.7219C14.3327 20.248 13.471 11.9939 13.2279 11.0927C12.9849 10.1915 12.1145 9.97472 10.8473 10.3773C9.77457 10.718 9.19748 10.2918 9.04542 10.1529C9.01776 10.1278 9.00433 10.1121 9.00433 10.1121C9.00433 10.1121 9.00853 10.1106 9.04347 10.1064C9.11185 10.0983 9.29652 10.0801 9.79339 10.0438C10.5437 9.98888 10.8228 9.38061 10.8228 9.38061L11.34 8.51217C13.347 8.16989 15.1179 7.43884 15.1056 3.77516L15.1351 3.77441C15.3279 4.2479 15.3905 4.77793 15.359 5.34835C15.8197 7.80936 14.4183 8.95399 14.4183 8.95399C14.4141 8.98677 14.4098 9.02038 14.4067 9.0551C14.2677 10.3945 14.6997 12.7823 14.6997 12.7823Z" fill="#3D1D55"/>
</g>
<g opacity="0.3">
<path d="M12.6904 21.5446C12.7929 21.5446 14.0055 21.9643 13.9384 22.9086C13.9384 22.9086 13.6696 23.02 13.3751 22.7273C13.3751 22.7273 13.3758 22.7426 13.3758 22.7685L13.1704 22.4793C13.0264 21.7544 11.9033 21.5445 11.9033 21.5445C11.9033 21.5445 12.7545 20.5524 13.3174 19.9164C13.8807 19.2807 12.9074 19.278 12.887 19.2967L13.5831 18.6446C13.8695 18.3074 14.2094 17.5347 14.3422 17.2188C14.4324 17.6098 14.7665 19.2502 14.2389 20.1201C13.6376 21.1123 12.5879 21.5446 12.6904 21.5446Z" fill="#3D1D55"/>
</g>
<g opacity="0.3">
<path d="M3.49518 19.0911C3.49518 19.0911 3.46564 19.1323 3.42223 19.1922C3.41683 19.1898 3.41188 19.1872 3.40648 19.1846C1.26356 18.1151 0.411525 16.1981 0.181946 14.3633C1.43294 19.5925 4.27921 15.8586 4.27921 15.8586C3.56971 17.0471 3.33278 18.1185 3.49518 19.0911Z" fill="#3D1D55"/>
</g>
<g opacity="0.3">
<path d="M9.60425 13.1289C12.6791 15.2371 9.14509 20.7313 7.87476 15.6199Z" fill="#3D1D55"/>
</g>
<path d="M9.80606 15.4199V15.4203C9.52497 16.7332 8.61617 17.1041 8.09741 16.671C7.84706 16.4623 7.68773 16.0663 7.73302 15.4989L7.97954 15.4894L8.2122 15.4806L8.33351 15.476L9.80606 15.4199Z" fill="#8DC63F"/>
<path d="M10.7832 15.008L10.4945 14.5818C10.4945 14.5818 10.1028 15.2411 9.80605 15.4204V15.4208C9.78341 15.4345 9.76151 15.4452 9.74037 15.4528C9.43934 15.5612 9.17707 15.4528 9.17707 15.4528C9.17707 15.4528 8.8315 15.6135 8.46869 15.5601C8.38269 15.5475 8.29594 15.523 8.21219 15.4811C8.14726 15.449 8.08435 15.4066 8.0252 15.3514L7.97954 15.4899L7.90351 15.7199C7.8421 15.6448 7.7849 15.5712 7.73301 15.4994C7.39741 15.0346 7.27573 14.6409 7.59018 14.391C7.59018 14.391 7.62857 13.5707 8.28132 13.6153C8.59045 12.8766 9.13373 13.0044 9.86521 13.8282C9.86521 13.8282 10.6666 13.4425 10.9906 13.8527C11.0109 13.8782 11.0298 13.9072 11.0459 13.9397C11.3208 14.4863 10.7832 15.008 10.7832 15.008Z" fill="#8DC63F"/>
<g opacity="0.7">
<path d="M11.1737 14.3086C11.1626 14.2727 11.1477 14.2365 11.1296 14.2002C10.8543 13.6534 9.94892 14.0889 9.94892 14.0889C9.21745 13.2651 8.67416 13.1373 8.36503 13.8759C7.71228 13.8313 7.6739 14.6516 7.6739 14.6516C7.56293 14.7401 7.5061 14.8462 7.49418 14.9675C7.42235 14.7351 7.45616 14.5383 7.64121 14.391C7.64121 14.391 7.67959 13.5707 8.33234 13.6153C8.64147 12.8766 9.18476 13.0044 9.91623 13.8282C9.91623 13.8282 10.8217 13.3925 11.0969 13.9396C11.1607 14.0659 11.1806 14.1911 11.1737 14.3086Z" fill="white"/>
</g>
<path d="M7.95481 15.8339C7.92047 15.8339 7.88756 15.8186 7.86544 15.7917C7.48156 15.3225 7.31698 14.9722 7.34742 14.6896C7.36234 14.5514 7.42383 14.4321 7.53052 14.3341C7.54491 14.2055 7.60385 13.8666 7.83545 13.6615C7.95234 13.558 8.0942 13.5034 8.25802 13.4987C8.39125 13.2177 8.56895 13.0573 8.78698 13.0214C9.10676 12.9685 9.48659 13.1873 9.94635 13.6896C10.1926 13.5893 10.9276 13.3465 11.1999 13.8877C11.5091 14.5023 10.9393 15.0655 10.915 15.0891C10.8905 15.1128 10.8566 15.1245 10.8228 15.1211C10.7887 15.1176 10.7581 15.0994 10.7389 15.0712L10.5496 14.7918C10.393 15.0326 10.0814 15.4699 9.83059 15.56C9.56802 15.6543 9.33177 15.6044 9.23287 15.5748C9.07857 15.6361 8.5592 15.8081 8.13498 15.5405L8.06428 15.7551C8.05116 15.7949 8.01719 15.8244 7.97581 15.832C7.96883 15.8332 7.96179 15.8339 7.95481 15.8339ZM8.28134 13.7273C8.16445 13.7273 8.06848 13.7618 7.98878 13.8324C7.81236 13.9885 7.76115 14.292 7.75627 14.3957C7.7547 14.4286 7.73903 14.4593 7.71316 14.4798C7.63121 14.545 7.58645 14.6216 7.57648 14.714C7.55654 14.8989 7.66675 15.1503 7.91268 15.4796L7.96688 15.3151C7.97918 15.2778 8.00977 15.2494 8.04801 15.2397C8.08625 15.2301 8.12674 15.2405 8.15545 15.2674C8.54631 15.634 9.17334 15.3516 9.17964 15.3487C9.20888 15.3352 9.24262 15.3344 9.27238 15.3467C9.27411 15.3474 9.49994 15.4355 9.75224 15.3448C9.94275 15.2763 10.2792 14.8044 10.4465 14.523C10.4666 14.4892 10.5028 14.4679 10.5423 14.4668C10.5816 14.4653 10.6191 14.4847 10.6412 14.5172L10.8452 14.8182C10.9699 14.6531 11.1603 14.3211 10.9938 13.9901C10.7727 13.5508 9.97424 13.9269 9.96615 13.9307C9.91966 13.953 9.8638 13.9418 9.82969 13.9034C9.30357 13.3108 8.99272 13.2194 8.82455 13.2472C8.67212 13.2723 8.54226 13.4108 8.43856 13.6586C8.4196 13.7039 8.37386 13.7323 8.3243 13.7288C8.30983 13.7277 8.29543 13.7273 8.28134 13.7273Z" fill="#2D0106"/>
<path d="M10.4332 14.6756C10.3434 14.47 10.306 14.2496 10.2906 14.0283C10.3757 14.214 10.4809 14.3988 10.623 14.5459C10.7602 14.6861 10.5178 14.8531 10.4332 14.6756Z" fill="#2D0106"/>
<path d="M7.75284 14.3146C7.86808 14.5896 8.09698 14.8202 8.37882 14.9252L8.22415 15.0219L8.29455 14.2778C8.30017 14.2148 8.3564 14.1683 8.41976 14.1743C8.44555 14.1767 8.4685 14.1874 8.48627 14.2035C8.52923 14.2422 8.56964 14.2801 8.61043 14.319C8.73294 14.4364 8.85073 14.556 8.96327 14.6841L8.76668 14.724C8.90164 14.4023 9.02453 14.0635 9.0363 13.71C9.08811 13.9754 9.06569 14.2543 9.0315 14.5223C9.01898 14.6131 9.00518 14.7016 8.98591 14.7945C8.97384 14.8529 8.91633 14.8904 8.85763 14.8784C8.82861 14.8729 8.80664 14.8558 8.7894 14.8343C8.64754 14.6733 8.49121 14.5186 8.33219 14.3738L8.5239 14.2995L8.4535 15.0435C8.44983 15.1184 8.36818 15.1692 8.29882 15.1401C7.97612 15.0204 7.7125 14.7671 7.56517 14.4593C7.5549 14.4379 7.54635 14.4189 7.53601 14.3919C7.51329 14.3329 7.54305 14.2667 7.60244 14.2442C7.66354 14.2206 7.73192 14.2533 7.75284 14.3146Z" fill="#2D0106"/>
<path d="M9.96182 13.9329C9.85325 13.9611 9.75023 14.0176 9.66131 14.087C9.56534 14.1613 9.49051 14.2591 9.4411 14.3715C9.45452 14.2439 9.50146 14.1177 9.57576 14.0103C9.65366 13.8966 9.75226 13.7968 9.87072 13.7227C9.87072 13.7226 9.96182 13.9329 9.96182 13.9329Z" fill="#2D0106"/>
<path d="M8.40901 14.403C8.35121 14.403 8.30135 14.3599 8.29467 14.3014L8.2179 13.6273C8.21078 13.5645 8.25621 13.5078 8.31942 13.5007C8.38232 13.4936 8.43968 13.5387 8.4468 13.6016L8.52358 14.2757C8.5307 14.3385 8.48527 14.3952 8.42206 14.4023C8.41779 14.4028 8.41336 14.403 8.40901 14.403Z" fill="#2D0106"/>
<path d="M8.07655 15.4656C8.07191 15.4656 8.06726 15.4653 8.06253 15.4647C7.9994 15.4571 7.95442 15.4002 7.96199 15.3375C7.97886 15.1968 7.97009 14.9702 7.90981 14.9104C7.86474 14.8658 7.86459 14.7933 7.90951 14.7485C7.95442 14.7037 8.02737 14.7036 8.07243 14.7482C8.23663 14.9109 8.19974 15.2904 8.19067 15.3648C8.1837 15.4229 8.13399 15.4656 8.07655 15.4656Z" fill="#2D0106"/>
<path d="M8.61996 16.9579C8.57857 16.9579 8.53779 16.955 8.4979 16.9491C8.03267 16.8819 7.59615 16.4047 7.66955 15.49C7.67465 15.427 7.73013 15.3803 7.79356 15.385C7.85699 15.39 7.90431 15.4452 7.89921 15.5083C7.83765 16.2752 8.1722 16.6709 8.53104 16.7227C8.97933 16.7874 9.54023 16.3528 9.74469 15.3964C9.75796 15.3345 9.81899 15.295 9.8813 15.3082C9.94353 15.3213 9.98327 15.3821 9.97007 15.444C9.74342 16.5038 9.13535 16.9579 8.61996 16.9579Z" fill="#2D0106"/>
<path d="M9.60153 13.6297C9.56794 13.2087 9.45232 12.761 9.14514 12.4512C9.33063 12.5791 9.47324 12.763 9.58271 12.9592C9.69232 13.1623 9.77622 13.3744 9.82991 13.6001C9.82998 13.6001 9.60153 13.6297 9.60153 13.6297Z" fill="#2D0106"/>
<path d="M7.76166 13.7621C7.879 13.4087 8.04695 13.0762 8.2748 12.7822C8.12035 13.102 8.0261 13.4555 7.98779 13.806L7.76166 13.7621Z" fill="#2D0106"/>
<g opacity="0.3">
<path d="M10.7832 15.0079L10.4945 14.5817C10.4945 14.5817 10.1028 15.241 9.80606 15.4204V15.4207C9.52497 16.7337 8.61618 17.1045 8.09741 16.6715C8.97824 16.7715 9.12527 15.5375 8.74514 15.5974C8.64182 15.6138 8.5493 15.5963 8.4687 15.56C8.41914 15.5379 8.37385 15.5089 8.33351 15.4764C8.17149 15.3467 8.08429 15.1635 8.08429 15.1635L8.40909 14.9674C8.63297 15.1941 9.43927 15.2177 9.75298 14.9377C10.0667 14.658 10.3577 14.254 10.3577 14.254L10.5977 14.6111C10.8588 14.6088 10.9645 14.027 10.9905 13.8525C11.0109 13.8781 11.0297 13.9071 11.0458 13.9396C11.3208 14.4863 10.7832 15.0079 10.7832 15.0079Z" fill="#3D1D55"/>
</g>
<g opacity="0.3">
<path d="M15.2629 4.3946C15.2629 4.3946 16.8756 3.34533 17.2276 3.85406C17.2276 3.85406 17.3619 2.75391 17.3427 2.75391C17.3235 2.75391 15.8229 3.69879 15.8229 3.69879L15.2629 4.20379" fill="#3D1D55"/>
</g>
<g opacity="0.3">
<path d="M15.4519 5.59639C15.4519 5.59639 16.8244 5.31297 16.7668 6.02882L17.2979 5.21484L16.9076 5.24234C16.9076 5.24234 16.2548 5.2594 16.1717 5.2848C16.0885 5.31021 15.4519 5.48828 15.4519 5.48828" fill="#3D1D55"/>
</g>
<g opacity="0.3">
<path d="M6.99487 1.93363L7.83941 2.58154C7.83941 2.58154 7.87645 2.32397 7.86686 2.29059C7.85726 2.25721 7.25249 1.24609 7.25249 1.24609" fill="#3D1D55"/>
</g>
<g opacity="0.3">
<path d="M2.79371 10.3935C2.79371 10.3935 4.71537 9.71113 5.13472 9.15531C5.16583 9.11411 5.53135 8.51165 5.53135 8.51165C5.53135 8.51165 5.47751 8.39446 5.43155 8.39453C5.38559 8.39461 4.81479 8.55204 4.81479 8.55204L2.43855 9.80038L2.16016 9.98739L2.79371 10.3935Z" fill="#3D1D55"/>
</g>
<g opacity="0.3">
<path d="M4.91315 10.2493C5.96155 9.33254 6.13092 10.0201 5.6411 11.9109C5.6411 11.9109 6.34536 10.3707 6.32616 9.87688C6.30697 9.38313 6.25898 8.87902 6.25898 8.87902C6.25898 8.87902 6.16301 8.82031 6.14382 8.82031C6.12463 8.82031 5.93966 8.88141 5.91357 8.91218C5.88747 8.94295 5.75986 9.12556 5.68946 9.17645" fill="#3D1D55"/>
</g>
<g opacity="0.3">
<path d="M6.32654 11.9393C6.32654 11.9393 6.66881 11.5695 7.33408 12.071L6.70052 10.8662L6.55177 11.1667" fill="#3D1D55"/>
</g>
<path d="M11.4074 3.62854C11.4491 4.03847 11.7136 4.34633 11.9976 4.31585C12.2817 4.28538 12.4781 3.9282 12.436 3.51827C12.415 3.31479 12.3396 3.13643 12.2342 3.0123C12.1829 2.95187 12.1247 2.90434 12.0623 2.87305C11.9381 2.90121 11.8203 2.93377 11.7287 2.96081C11.6607 2.98086 11.6073 2.99203 11.5655 2.99583C11.5249 3.04598 11.4909 3.10528 11.4646 3.17219C11.4126 3.30302 11.3903 3.46142 11.4074 3.62854Z" fill="#2D0106"/>
<path d="M11.742 3.19597C11.8373 3.21944 11.8972 3.35161 11.8758 3.49116C11.8544 3.63071 11.7598 3.72474 11.6645 3.70127C11.5692 3.6778 11.5094 3.54563 11.5308 3.40608C11.5521 3.2666 11.6467 3.1725 11.742 3.19597Z" fill="white"/>
<path d="M12.1768 3.88332C12.2199 3.91461 12.2256 3.99158 12.1895 4.05521C12.1534 4.11884 12.0893 4.14506 12.0462 4.11377C12.0032 4.08248 11.9975 4.00551 12.0336 3.94188C12.0695 3.87826 12.1337 3.85203 12.1768 3.88332Z" fill="#B199C5"/>
<path d="M11.3414 3.13145C11.3737 3.15269 11.4136 3.16722 11.4646 3.17213C11.5107 3.17675 11.5663 3.17325 11.6335 3.16006C11.6673 3.15328 11.7046 3.14434 11.7447 3.1322C11.8137 3.11179 11.8799 3.09346 11.9434 3.07699C12.0487 3.04995 12.1463 3.02797 12.2343 3.01225C12.4214 2.97834 12.5655 2.97075 12.6501 2.99228C12.6501 2.99228 12.5067 2.79409 12.2498 2.83455C12.1873 2.84543 12.124 2.85861 12.0623 2.87299C11.9381 2.90116 11.8204 2.93372 11.7288 2.96076C11.6608 2.9808 11.6074 2.99198 11.5655 2.99578C11.4348 3.00725 11.4087 2.94757 11.3715 2.86212L11.3644 2.8461C11.3643 2.8461 11.2201 3.04942 11.3414 3.13145Z" fill="#2D0106"/>
<path d="M9.37741 3.04694C9.23713 3.37141 8.94112 3.55544 8.71679 3.45784C8.49246 3.36023 8.42438 3.01803 8.56488 2.69363C8.63484 2.53262 8.74258 2.40611 8.86097 2.33161C8.91855 2.2954 8.97846 2.2714 9.03761 2.26172C9.13186 2.31656 9.21966 2.37325 9.28759 2.41878C9.33805 2.4526 9.37876 2.47533 9.41197 2.48919C9.43214 2.54052 9.44459 2.59774 9.44871 2.65913C9.45749 2.77946 9.43462 2.91469 9.37741 3.04694Z" fill="#2D0106"/>
<path d="M9.2159 2.60763C9.13193 2.60242 9.0487 2.69518 9.03011 2.81476C9.01144 2.93434 9.06445 3.03544 9.14842 3.04059C9.2324 3.0458 9.31562 2.95304 9.33422 2.83346C9.35288 2.71395 9.29995 2.61277 9.2159 2.60763Z" fill="white"/>
<path d="M8.68246 3.05782C8.63913 3.07235 8.61454 3.13389 8.62758 3.19513C8.64055 3.25638 8.68621 3.29423 8.72955 3.2797C8.77289 3.26517 8.79748 3.20363 8.78443 3.14238C8.77139 3.08107 8.72573 3.04322 8.68246 3.05782Z" fill="#B199C5"/>
<path d="M9.56012 2.65746C9.52818 2.66655 9.49174 2.66819 9.44878 2.65917C9.40994 2.6512 9.3654 2.63406 9.31382 2.60612C9.28795 2.59197 9.25983 2.57513 9.23014 2.55494C9.17908 2.52059 9.12967 2.4887 9.08206 2.45905C9.00296 2.40995 8.92881 2.36703 8.86096 2.33172C8.7167 2.25617 8.60094 2.21303 8.52618 2.20901C8.52618 2.20901 8.69481 2.08369 8.89432 2.18248C8.94261 2.20737 8.99097 2.23434 9.0376 2.2619C9.13185 2.31674 9.21965 2.37344 9.28758 2.41896C9.33803 2.45279 9.37875 2.47551 9.41196 2.48937C9.51588 2.53221 9.55269 2.49004 9.60525 2.42969L9.61523 2.41844C9.6153 2.41829 9.68045 2.6214 9.56012 2.65746Z" fill="#2D0106"/>
<path d="M11.0778 4.56568C10.2342 3.87464 9.1705 3.48661 8.08596 3.40212C7.93698 3.38983 7.77803 3.38134 7.63115 3.38253L7.61285 3.15432C8.89294 3.06759 10.2192 3.62721 11.0778 4.56568Z" fill="#2D0106"/>
</svg>
