<svg width="78" height="76" viewBox="0 0 78 76" fill="none" xmlns="http://www.w3.org/2000/svg">
<path d="M25.376 10.0298V66.6678C25.376 66.6678 37.1007 63.7179 43.5962 51.1138C43.5962 51.1138 50.587 39.2069 43.1007 24.4574C43.1007 24.4574 37.5411 13.2479 25.376 10.0298Z" fill="#EA7D18"/>
<path d="M58.183 5.04151C75.3023 14.8566 77.1738 31.0006 77.1738 31.0006C80.6968 51.328 67.816 63.3421 67.816 63.3421C50.5316 81.846 27.4124 74.2299 27.4124 74.2299C44.2564 69.2419 50.4766 55.4042 50.4766 55.4042C59.6142 36.364 50.4766 21.5073 50.4766 21.5073C42.3849 5.20241 26.0362 2.09161 26.0362 2.09161C43.8711 -3.96908 58.183 5.04151 58.183 5.04151ZM62.0362 11.2095C62.0362 11.2095 61.1555 20.381 52.128 20.381C52.128 20.381 60.9353 21.8827 61.761 30.4642C61.761 30.4642 62.5316 21.0782 71.7793 20.6491C71.7243 20.6491 61.5959 19.8446 62.0362 11.2095ZM14.0913 8.52775H17.339V67.9547H14.8619C14.8619 67.9547 4.40321 60.0704 1.21055 47.8418C1.21055 47.8418 -3.02799 33.7896 3.96284 20.81C4.01789 20.8637 9.1922 11.6922 14.0913 8.52775Z" fill="#EA7D18"/>
</svg>
