<svg width="352" height="342" viewBox="0 0 352 342" fill="none" xmlns="http://www.w3.org/2000/svg">
<path d="M114.518 45.1333V300.004C114.518 300.004 167.429 286.73 196.742 230.011C196.742 230.011 228.29 176.43 194.506 110.058C194.506 110.058 169.417 59.6146 114.518 45.1333Z" fill="#EA7D18"/>
<path d="M262.571 22.6875C339.828 66.8555 348.274 139.503 348.274 139.503C364.172 230.977 306.043 285.04 306.043 285.04C228.042 368.308 123.709 334.035 123.709 334.035C199.723 311.589 227.794 249.32 227.794 249.32C269.03 163.639 227.794 96.7835 227.794 96.7835C191.277 23.4116 117.499 9.413 117.499 9.413C197.984 -17.8601 262.571 22.6875 262.571 22.6875ZM279.96 50.4433C279.96 50.4433 275.986 91.715 235.246 91.715C235.246 91.715 274.992 98.473 278.718 137.09C278.718 137.09 282.196 94.8527 323.929 92.9218C323.681 92.9218 277.973 89.3015 279.96 50.4433ZM63.5932 38.3756H78.2495V305.797H67.071C67.071 305.797 19.8727 270.318 5.46476 215.289C5.46476 215.289 -13.663 152.054 17.8854 93.6459C18.1338 93.8872 41.4845 52.6155 63.5932 38.3756Z" fill="#EA7D18"/>
</svg>
