<svg xmlns="http://www.w3.org/2000/svg" xmlns:xlink="http://www.w3.org/1999/xlink" id="a03c6f82-04c7-423f-8975-eb6843c72061" data-name="Layer 2" viewBox="0 0 158.41 158.41"><defs><style>.e2a73858-ed5c-4d1c-b3b8-877fecedc0d9{stroke:#fff;stroke-miterlimit:90;fill:url(#f2e97476-cabe-4109-a6d2-870df1dcc3a6);}.e6b07fda-7683-4b1f-94e9-f5cd471d5abf{fill:#1f0938;}.a354a25d-e481-4286-8abd-b01e1424790d{fill:#6f49a5;}.ed5d3596-44a5-4ac6-acb8-b9c5117b0d2b{fill:#54238e;}</style><linearGradient id="f2e97476-cabe-4109-a6d2-870df1dcc3a6" x1="136.08" y1="25.2" x2="24.22" y2="131.42" gradientUnits="userSpaceOnUse"><stop offset="0" stop-color="#fff"/><stop offset="1" stop-color="#e6e7e8"/></linearGradient></defs><circle class="e2a73858-ed5c-4d1c-b3b8-877fecedc0d9" cx="79.21" cy="79.21" r="78.71"/><path class="e6b07fda-7683-4b1f-94e9-f5cd471d5abf" d="M77.21,104.22l8.06,22.31s1,2.08,2.08,2.08,17.13-16.69,17.13-16.69l17.84-34.46-44.82,21Z" transform="translate(-20.56 -21.29)"/><path class="a354a25d-e481-4286-8abd-b01e1424790d" d="M87.89,109.94l-1.54,16.44s-.65,5,4.39,0,9.85-8.92,9.85-8.92Z" transform="translate(-20.56 -21.29)"/><path class="ed5d3596-44a5-4ac6-acb8-b9c5117b0d2b" d="M77.36,105l-16.58-5.4s-2-.8-1.34-2.63c.13-.37.4-.69,1.19-1.24,3.67-2.56,68-25.68,68-25.68a5.48,5.48,0,0,1,2.89-.2A1.58,1.58,0,0,1,132.56,71a5.48,5.48,0,0,1,.14,1.47c0,.42-.06.82-.09,1.43-.4,6.32-12.11,53.48-12.11,53.48s-.7,2.76-3.22,2.86a4.58,4.58,0,0,1-3.35-1.3c-4.93-4.24-22-15.69-25.74-18.21a.74.74,0,0,1-.31-.51c0-.26.24-.59.24-.59s29.67-26.37,30.46-29.14c.06-.22-.17-.32-.48-.23C116.13,81,82,102.59,78.19,105A1.77,1.77,0,0,1,77.36,105Z" transform="translate(-20.56 -21.29)"/></svg>