<svg xmlns="http://www.w3.org/2000/svg" xmlns:xlink="http://www.w3.org/1999/xlink" id="b134f563-40a6-49da-892b-816c0992f271" data-name="Layer 1" viewBox="0 0 158.41 158.41"><defs><style>.e2bc3ff0-d09b-4e4d-8d0f-8241cd44ab57{stroke:#fff;stroke-miterlimit:90;fill:url(#a18a9eb9-0128-4b0a-af9b-0cfeb5321e00);}.b32c8286-eb07-4ddb-a939-7b370749917a{fill:#c1daea;}.a74dbfe1-190f-4893-b6ac-402d6931e3db{fill:#9cc6d9;}.b8ef3c23-0722-441d-8d8f-bfb29a61823e{fill:#fff;}</style><linearGradient id="a18a9eb9-0128-4b0a-af9b-0cfeb5321e00" x1="136.08" y1="25.2" x2="24.22" y2="131.42" gradientUnits="userSpaceOnUse"><stop offset="0" stop-color="#0093d4"/><stop offset="1" stop-color="#00b0e5"/></linearGradient></defs><circle class="e2bc3ff0-d09b-4e4d-8d0f-8241cd44ab57" cx="79.21" cy="79.21" r="78.71"/><path class="b32c8286-eb07-4ddb-a939-7b370749917a" d="M77.21,104.22l8.06,22.31s1,2.08,2.08,2.08,17.13-16.69,17.13-16.69l17.84-34.46-44.82,21Z" transform="translate(-20.56 -21.29)"/><path class="a74dbfe1-190f-4893-b6ac-402d6931e3db" d="M87.89,109.94l-1.54,16.44s-.65,5,4.39,0,9.85-8.92,9.85-8.92Z" transform="translate(-20.56 -21.29)"/><path class="b8ef3c23-0722-441d-8d8f-bfb29a61823e" d="M77.36,105l-16.58-5.4s-2-.8-1.34-2.63c.13-.37.4-.69,1.19-1.24,3.67-2.56,68-25.68,68-25.68a5.48,5.48,0,0,1,2.89-.2A1.58,1.58,0,0,1,132.56,71a5.48,5.48,0,0,1,.14,1.47c0,.42-.06.82-.09,1.43-.4,6.32-12.11,53.48-12.11,53.48s-.7,2.76-3.22,2.86a4.58,4.58,0,0,1-3.35-1.3c-4.93-4.24-22-15.69-25.74-18.21a.74.74,0,0,1-.31-.51c0-.26.24-.59.24-.59s29.67-26.37,30.46-29.14c.06-.22-.17-.32-.48-.23C116.13,81,82,102.59,78.19,105A1.77,1.77,0,0,1,77.36,105Z" transform="translate(-20.56 -21.29)"/></svg>