<svg width="62" height="62" viewBox="0 0 62 62" fill="none" xmlns="http://www.w3.org/2000/svg">
<g clip-path="url(#clip0_186_28516)">
<path d="M38.9898 61.2506V52.6632C38.7328 48.9944 36.0173 46.0065 32.4826 45.3432C32.564 45.32 32.6453 45.2959 32.7258 45.269C34.5925 44.6437 36.008 43.0335 36.3585 41.0536C36.4139 40.7423 36.4435 40.4227 36.4435 40.0957C36.4435 37.0828 34.0063 34.6406 30.9996 34.6406C27.9928 34.6406 25.5556 37.0828 25.5556 40.0957C25.5556 40.4227 25.5861 40.7423 25.6407 41.0536C25.9911 43.0335 27.4066 44.6437 29.2733 45.269C29.3538 45.2959 29.4342 45.32 29.5165 45.3432C25.9818 46.0056 23.2663 48.9944 23.0093 52.6632V61.0505C23.3098 61.0949 23.5714 61.1524 23.8248 61.2191C23.8608 61.2191 23.8978 61.2228 23.9366 61.2311C28.04 62.1316 32.2764 62.1539 36.4583 61.7472C37.3108 61.6267 38.1559 61.4609 38.9898 61.2506Z" fill="#EEEEEE"/>
<path d="M30.9995 0C13.9067 0 0 13.935 0 31.0625C0 44.9123 9.09238 56.6728 21.6094 60.6687V56.7015C21.6002 56.6978 21.5909 56.6951 21.5817 56.6923V42.7295C21.5817 38.8032 18.7691 35.5355 15.0523 34.8388C15.1336 34.8157 15.215 34.7916 15.2954 34.7647C17.1622 34.1393 18.5777 32.5291 18.9281 30.5493C18.9836 30.238 19.0132 29.9184 19.0132 29.5913C19.0132 26.5784 16.576 24.1363 13.5692 24.1363C10.5625 24.1363 8.12527 26.5784 8.12527 29.5913C8.12527 29.9184 8.15578 30.238 8.21033 30.5493C8.56075 32.5291 9.97629 34.1393 11.843 34.7647C11.9235 34.7916 12.0048 34.8166 12.0871 34.8397C8.85939 35.4447 6.31308 37.9888 5.69915 41.2194C4.44264 38.0796 3.75012 34.6526 3.75012 31.0635C3.75012 15.9834 15.95 3.75867 30.9995 3.75867C46.049 3.75867 58.2489 15.9834 58.2489 31.0625C58.2489 34.6517 57.5564 38.0787 56.2999 41.2185C55.686 37.9879 53.1397 35.4438 49.9119 34.8388C49.9942 34.8157 50.0756 34.7906 50.156 34.7638C52.0228 34.1384 53.4383 32.5282 53.7887 30.5483C53.8442 30.2371 53.8738 29.9174 53.8738 29.5904C53.8738 26.5775 51.4366 24.1354 48.4298 24.1354C45.4231 24.1354 42.9859 26.5775 42.9859 29.5904C42.9859 29.9174 43.0164 30.2371 43.0709 30.5483C43.4214 32.5282 44.8369 34.1384 46.7036 34.7638C46.7841 34.7906 46.8645 34.8147 46.9468 34.8379C43.2309 35.5346 40.4174 38.8022 40.4174 42.7286V56.6913C40.4081 56.6951 40.3989 56.6978 40.3896 56.7006V60.6677C52.9067 56.6719 61.9991 44.9113 61.9991 31.0616C62 13.935 48.0933 0 30.9995 0Z" fill="#EEEEEE"/>
</g>
<defs>
<clipPath id="clip0_186_28516">
<rect width="62" height="62" fill="white"/>
</clipPath>
</defs>
</svg>
