<svg width="21" height="20" viewBox="0 0 21 20" fill="none"
  xmlns="http://www.w3.org/2000/svg">
  <g clip-path="url(#clip0_19_155)">
    <path d="M10.25 20C15.9109 20 20.5 15.5228 20.5 10C20.5 4.47715 15.9109 0 10.25 0C4.58908 0 0 4.47715 0 10C0 15.5228 4.58908 20 10.25 20Z" fill="#050035"/>
    <path d="M8.9687 3.8125C8.77651 3.8125 8.64839 3.875 8.4562 3.9375L5.18901 5.875L4.99683 6L4.61245 6.25C4.29214 6.4375 4.03589 6.625 4.03589 7.3125V9.875C4.03589 10.4375 4.22808 10.875 4.61245 11.0625L8.58433 13.4375C9.22495 13.8125 10.0578 13.375 10.0578 12.625V10.8125C10.0578 10.375 9.80151 9.9375 9.41714 9.6875L7.55933 8.5625L9.4812 7.375C9.80151 7.1875 9.9937 6.8125 9.9937 6.4375V4.75C9.9937 4.1875 9.4812 3.8125 8.9687 3.8125ZM9.41714 6.5C9.41714 6.6875 9.28901 6.875 9.16089 7L6.98276 8.3125L5.82964 7.625C5.50933 7.4375 5.31714 7.3125 5.12495 7.125C4.93276 6.9375 4.99683 6.625 5.25308 6.5L8.77651 4.375C8.84058 4.375 8.90464 4.3125 8.9687 4.3125C9.16089 4.3125 9.41714 4.5 9.41714 4.75V6.5ZM15.9515 8.9375L11.9796 6.5625C11.339 6.1875 10.5062 6.625 10.5062 7.375V9.1875C10.5062 9.625 10.7625 10.0625 11.1468 10.3125L13.0046 11.4375L11.0828 12.625C10.7625 12.8125 10.5703 13.1875 10.5703 13.5625V15.3125C10.5703 15.875 11.0828 16.3125 11.5953 16.3125C11.7875 16.3125 11.9156 16.25 12.1078 16.1875L15.375 14.25L15.6312 14.125L16.0156 13.875C16.3359 13.6875 16.5921 13.5 16.5921 12.8125V10.25C16.5281 9.5625 16.2718 9.125 15.9515 8.9375ZM15.2468 13.5L11.7234 15.625C11.6593 15.6875 11.5953 15.6875 11.4671 15.6875C11.275 15.6875 11.0187 15.5 11.0187 15.25V13.5C11.0187 13.3125 11.1468 13.125 11.275 13L13.4531 11.6875L14.6062 12.375C14.9265 12.5625 15.1187 12.6875 15.3109 12.875C15.5671 13.0625 15.5031 13.375 15.2468 13.5Z" fill="url(#paint0_linear_19_155)"/>
  </g>
  <defs>
    <linearGradient id="paint0_linear_19_155" x1="3.99585" y1="10" x2="16.5041" y2="10" gradientUnits="userSpaceOnUse">
      <stop stop-color="#00C2FF"/>
      <stop offset="1" stop-color="#0067FF"/>
    </linearGradient>
    <clipPath id="clip0_19_155">
      <rect width="20.5" height="20" fill="white"/>
    </clipPath>
  </defs>
</svg>
