<svg width="28" height="28" viewBox="0 0 28 28" fill="none" xmlns="http://www.w3.org/2000/svg">
<path d="M27.5593 16.9745C28.5508 14.1169 27.5593 11.4343 27.5593 11.4343L24.2933 10.5887C24.3033 10.625 24.3127 10.6608 24.3225 10.6968C24.1932 10.2928 24.0414 9.89901 23.8676 9.51698L25.6911 6.51547C24.3715 3.79376 21.7735 2.59786 21.7735 2.59786L18.8663 4.30943C18.9013 4.32911 18.9353 4.3493 18.9698 4.36923C18.5946 4.17528 18.2065 4.00279 17.8073 3.85305L16.9743 0.441144C14.1166 -0.550332 11.434 0.441144 11.434 0.441144L10.5885 3.70714C10.6248 3.69717 10.6605 3.68772 10.6966 3.67801C10.2926 3.80731 9.89852 3.9591 9.51675 4.13286L6.51524 2.30936C3.79353 3.62894 2.59763 6.22697 2.59763 6.22697L4.30895 9.13419C4.32862 9.09944 4.34881 9.0652 4.36874 9.0307C4.17479 9.40583 4.0023 9.79398 3.85256 10.1931L0.440656 11.0262C-0.55082 13.8838 0.440656 16.5664 0.440656 16.5664L3.70665 17.412C3.69668 17.3757 3.68723 17.3399 3.67752 17.3039C3.80682 17.7079 3.95861 18.1019 4.13237 18.4837L2.30913 21.485C3.62871 24.2067 6.22674 25.4026 6.22674 25.4026L9.13396 23.6913C9.09895 23.6716 9.06497 23.6514 9.03047 23.6315C9.40559 23.8254 9.79375 23.9979 10.1929 24.1476L11.0259 27.5595C13.8836 28.551 16.5662 27.5595 16.5662 27.5595L17.4118 24.2936C17.3755 24.3035 17.3397 24.313 17.3037 24.3227C17.7077 24.1934 18.1017 24.0416 18.4835 23.8678L21.485 25.6913C24.2067 24.3718 25.4026 21.7737 25.4026 21.7737L23.691 18.8665C23.6714 18.9015 23.6512 18.9358 23.6312 18.97C23.8252 18.5949 23.9977 18.2067 24.1474 17.8076L27.5593 16.9745ZM14.0001 19.0758C11.1969 19.0758 8.92442 16.8033 8.92442 14.0001C8.92442 11.1969 11.1969 8.9244 14.0001 8.9244C16.8033 8.9244 19.0758 11.1969 19.0758 14.0001C19.0758 16.8033 16.8033 19.0758 14.0001 19.0758Z" fill="#333333"/>
</svg>
