<svg width="28" height="28" viewBox="0 0 28 28" fill="none" xmlns="http://www.w3.org/2000/svg">
<path d="M13.7464 27.9996C12.9099 27.9996 11.9572 27.8865 10.9791 27.5472C10.8484 27.5018 10.7494 27.3932 10.7167 27.2587L9.95864 24.1534C9.73613 24.0648 9.51611 23.9686 9.30056 23.8659L6.66129 25.4194C6.5462 25.4871 6.40531 25.4943 6.28401 25.4385C6.17561 25.3887 3.61423 24.1851 2.28468 21.4432C2.2244 21.3186 2.2311 21.1718 2.30304 21.0535L3.9625 18.3219C3.86824 18.1029 3.78043 17.8792 3.70031 17.6529L0.7356 16.8855C0.606366 16.852 0.501688 16.7575 0.455303 16.6322C0.413878 16.5203 -0.546328 13.858 0.452574 10.9791C0.497968 10.8484 0.606614 10.7494 0.741058 10.7167L3.84616 9.95864C3.93472 9.73614 4.03096 9.51612 4.13365 9.30031L2.58011 6.66105C2.51239 6.54595 2.5052 6.40506 2.56101 6.28376C2.61087 6.17536 3.81441 3.61399 6.55637 2.28443C6.68089 2.22391 6.82774 2.23085 6.94581 2.30279L9.67735 3.96225C9.89638 3.86799 10.1201 3.78018 10.3463 3.70006L11.1138 0.735601C11.1473 0.606366 11.2421 0.501688 11.3671 0.455303C11.4789 0.413878 14.1413 -0.546328 17.0202 0.452574C17.1509 0.497968 17.2499 0.606614 17.2826 0.741058L18.0406 3.84641C18.2631 3.93496 18.4832 4.03121 18.6987 4.1339L21.338 2.58036C21.4531 2.51264 21.594 2.50545 21.7153 2.56126C21.8237 2.61112 24.385 3.81466 25.7146 6.55662C25.7749 6.68114 25.7682 6.82774 25.6962 6.94606L24.0368 9.6776C24.131 9.89663 24.2188 10.1204 24.299 10.3466L27.2634 11.1143C27.3927 11.1478 27.4973 11.2423 27.5437 11.3676C27.5852 11.4794 28.5454 14.1418 27.5465 17.0207C27.5011 17.1514 27.3924 17.2503 27.258 17.2831L24.1529 18.0414C24.0643 18.2639 23.9681 18.4839 23.8654 18.6995L25.4189 21.3387C25.4866 21.4538 25.4938 21.5947 25.438 21.716C25.3882 21.8244 24.1846 24.3858 21.4427 25.7153C21.3181 25.7759 21.1715 25.7687 21.0532 25.697L18.3217 24.0375C18.1027 24.132 17.8789 24.2196 17.6527 24.2997L16.885 27.2642C16.8515 27.3934 16.7567 27.4981 16.6317 27.5445C16.5583 27.5718 15.3721 27.9996 13.7464 27.9996ZM11.4551 26.8455C13.5517 27.4986 15.5338 27.0243 16.1525 26.8422L16.8381 24.1943C16.8292 24.1752 16.8215 24.1554 16.8155 24.1345C16.7533 23.9222 16.8718 23.6989 17.0827 23.6315C17.458 23.5114 17.8283 23.3688 18.1833 23.2073C18.3061 23.1515 18.4487 23.1599 18.5638 23.2299L21.2839 24.8824C23.2281 23.8619 24.2945 22.1248 24.6031 21.5585L23.2212 19.2109C23.1981 19.2033 23.1753 19.1936 23.1532 19.1814C22.959 19.075 22.8853 18.8332 22.987 18.6367C23.1676 18.2875 23.3296 17.9228 23.4685 17.5525C23.5159 17.4262 23.6225 17.3317 23.7535 17.2997L26.8457 16.5446C27.4988 14.4481 27.0246 12.4659 26.8425 11.8473L24.1945 11.1617C24.1754 11.1706 24.1556 11.1783 24.1348 11.1843C23.9224 11.2463 23.6992 11.128 23.6317 10.9171C23.5117 10.5416 23.369 10.1715 23.2075 9.81651C23.1517 9.69372 23.1602 9.55134 23.2301 9.436L24.8826 6.71587C23.8587 4.76395 22.1248 3.70328 21.5592 3.39645L19.2112 4.77859C19.2035 4.80165 19.1936 4.82448 19.1817 4.84655C19.0753 5.04078 18.8334 5.1147 18.637 5.01275C18.2879 4.83241 17.9231 4.67019 17.5527 4.53128C17.4265 4.4839 17.332 4.37724 17.3 4.24627L16.5449 1.15406C14.4484 0.500696 12.4662 0.975218 11.8475 1.15729L11.1619 3.80523C11.1709 3.82433 11.1786 3.84418 11.1845 3.86501C11.2468 4.07735 11.1282 4.30059 10.9174 4.36806C10.5421 4.48812 10.1717 4.63075 9.81675 4.79223C9.69397 4.84804 9.55159 4.83961 9.43624 4.76966L6.71611 3.11714C4.7642 4.14109 3.70353 5.87497 3.39669 6.44053L4.77883 8.78858C4.8019 8.79627 4.82448 8.80595 4.84655 8.8181C5.04078 8.92451 5.11469 9.16636 5.01299 9.36307C4.83241 9.71232 4.67044 10.0772 4.53153 10.4475C4.48415 10.5738 4.37749 10.6683 4.24652 10.7003L1.15431 11.4549C0.501192 13.5514 0.975466 15.5336 1.15754 16.1522L3.80548 16.8378C3.82458 16.8289 3.84443 16.8212 3.86526 16.8153C4.07759 16.753 4.30084 16.8716 4.36831 17.0824C4.48837 17.458 4.631 17.8281 4.79248 18.183C4.84829 18.3058 4.83985 18.4482 4.7699 18.5635L3.11739 21.2839C4.14134 23.2358 5.87522 24.2967 6.44078 24.6033L8.78883 23.2212C8.79652 23.1981 8.80644 23.1753 8.81835 23.1532C8.92476 22.959 9.16661 22.8853 9.36307 22.987C9.71232 23.1676 10.077 23.3296 10.4473 23.4685C10.5736 23.5159 10.6681 23.6225 10.7001 23.7535L11.4551 26.8455ZM13.9999 19.3345C11.0582 19.3345 8.6653 16.9413 8.6653 13.9999C8.6653 11.0582 11.0585 8.6653 13.9999 8.6653C16.9413 8.6653 19.3345 11.0585 19.3345 13.9999C19.3347 16.9413 16.9415 19.3345 13.9999 19.3345ZM13.9999 9.48064C11.508 9.48064 9.48064 11.508 9.48064 13.9999C9.48064 16.4918 11.508 18.5191 13.9999 18.5191C16.4918 18.5191 18.5191 16.4918 18.5191 13.9999C18.5191 11.508 16.4918 9.48064 13.9999 9.48064Z" fill="#333333"/>
</svg>
