<svg xmlns="http://www.w3.org/2000/svg" xmlns:xlink="http://www.w3.org/1999/xlink" version="1.1" id="Layer_1" x="0px" y="0px" viewBox="0 0 200 200" style="enable-background:new 0 0 200 200;" xml:space="preserve">
<style type="text/css">
	.st0{fill:#111618;}
	.st1{fill:#FFFFFF;}
	.st2{fill:#EEE9E7;}
	.st3{fill:#0080FF;stroke:#000000;stroke-miterlimit:10;}
</style>
<g>
	<path class="st0" d="M62.4,120.8c33.1,0,59.9-26.1,59.9-58.2S95.5,4.4,62.4,4.4C29.3,4.4,2.6,30.4,2.6,62.6S29.3,120.8,62.4,120.8z   "/>
	<path class="st1" d="M80.5,36.5L68,54.5c-0.2,0.2-0.2,0.6-0.2,0.9c0,0.3,0.2,0.6,0.4,0.8c0.2,0.2,0.5,0.3,0.9,0.3   c0.3,0,0.6-0.1,0.9-0.3l12.3-10.3c0,0,0.1-0.1,0.2-0.1c0.1,0,0.2,0,0.3,0c0.1,0,0.1,0.1,0.2,0.2c0,0.1,0.1,0.1,0.1,0.2v32.3   c0,0.1,0,0.2-0.1,0.3c0,0.1-0.1,0.1-0.2,0.2c-0.1,0-0.2,0-0.3,0c-0.1,0-0.2-0.1-0.2-0.1L45,35.8c-0.6-0.7-1.3-1.2-2.2-1.6   c-0.8-0.4-1.8-0.6-2.7-0.6h-1.3c-1.7,0-3.3,0.6-4.5,1.8c-1.2,1.1-1.9,2.7-1.9,4.3v45.5c0,1.6,0.7,3.2,1.9,4.3   c1.2,1.1,2.8,1.8,4.5,1.8c1.1,0,2.2-0.2,3.1-0.8c0.9-0.5,1.8-1.2,2.3-2.2l12.5-17.9c0.2-0.2,0.2-0.6,0.2-0.9c0-0.3-0.2-0.6-0.4-0.8   c-0.2-0.2-0.5-0.3-0.9-0.3c-0.3,0-0.6,0.1-0.9,0.3L42.5,79c0,0-0.1,0.1-0.2,0.1s-0.2,0-0.3,0c-0.1,0-0.1-0.1-0.2-0.2   s-0.1-0.1-0.1-0.2V46.3c0-0.1,0-0.2,0.1-0.3c0-0.1,0.1-0.1,0.2-0.2s0.2,0,0.3,0c0.1,0,0.2,0.1,0.2,0.1L79.8,89   c0.6,0.7,1.3,1.2,2.2,1.6s1.8,0.6,2.7,0.6h1.3c0.8,0,1.7-0.1,2.5-0.4c0.8-0.3,1.5-0.7,2.1-1.3c0.6-0.6,1.1-1.2,1.4-2   c0.3-0.7,0.5-1.5,0.5-2.4V39.6c0-1.6-0.7-3.2-1.9-4.3c-1.2-1.1-2.8-1.8-4.5-1.8c-1.1,0-2.2,0.2-3.1,0.8   C81.9,34.9,81.1,35.6,80.5,36.5z"/>
</g>
<g>
	<path class="st2" d="M137.3,195.6c33.1,0,59.9-26.1,59.9-58.2s-26.8-58.2-59.9-58.2c-33.1,0-59.9,26.1-59.9,58.2   S104.2,195.6,137.3,195.6z"/>
	<path d="M155.4,111.4l-12.5,17.9c-0.2,0.2-0.2,0.6-0.2,0.9c0,0.3,0.2,0.6,0.4,0.8s0.5,0.3,0.9,0.3c0.3,0,0.6-0.1,0.9-0.3l12.3-10.3   c0,0,0.1-0.1,0.2-0.1c0.1,0,0.2,0,0.3,0c0.1,0,0.1,0.1,0.2,0.2c0,0.1,0.1,0.1,0.1,0.2v32.3c0,0.1,0,0.2-0.1,0.3   c0,0.1-0.1,0.1-0.2,0.2c-0.1,0-0.2,0-0.3,0c-0.1,0-0.2-0.1-0.2-0.1l-37.2-43.2c-0.6-0.7-1.3-1.2-2.2-1.6c-0.8-0.4-1.8-0.6-2.7-0.6   h-1.3c-1.7,0-3.3,0.6-4.5,1.8c-1.2,1.1-1.9,2.7-1.9,4.3v45.5c0,1.6,0.7,3.2,1.9,4.3c1.2,1.1,2.8,1.8,4.5,1.8c1.1,0,2.2-0.2,3.1-0.8   c0.9-0.5,1.8-1.2,2.3-2.2l12.5-17.9c0.2-0.2,0.2-0.6,0.2-0.9c0-0.3-0.2-0.6-0.4-0.8s-0.5-0.3-0.9-0.3c-0.3,0-0.6,0.1-0.9,0.3   l-12.3,10.3c0,0-0.1,0.1-0.2,0.1s-0.2,0-0.3,0c-0.1,0-0.1-0.1-0.2-0.2c0-0.1-0.1-0.1-0.1-0.2v-32.3c0-0.1,0-0.2,0.1-0.3   s0.1-0.1,0.2-0.2c0.1,0,0.2,0,0.3,0c0.1,0,0.2,0.1,0.2,0.1l37.2,43.1c0.6,0.7,1.3,1.2,2.2,1.6c0.8,0.4,1.8,0.6,2.7,0.6h1.3   c0.8,0,1.7-0.1,2.5-0.4c0.8-0.3,1.5-0.7,2.1-1.3c0.6-0.6,1.1-1.2,1.4-2c0.3-0.7,0.5-1.5,0.5-2.4v-45.5c0-1.6-0.7-3.2-1.9-4.3   s-2.8-1.8-4.5-1.8c-1.1,0-2.2,0.2-3.1,0.8C156.8,109.8,156,110.5,155.4,111.4z"/>
</g>
<g>
	<path d="M132.8,114.2h-3v-0.7h3V114.2z"/>
	<path d="M143.7,109.2l-2.2,7.7h-1.1l-1.6-5.7c0-0.2-0.1-0.5-0.1-0.8l0,0c0,0.2,0,0.5-0.1,0.8l-1.6,5.7h-1l-2.3-7.7h1l1.6,5.9   c0,0.2,0.1,0.5,0.1,0.8h0c0-0.2,0-0.4,0.1-0.8l1.7-5.9h0.9l1.6,6c0,0.2,0.1,0.4,0.1,0.7l0,0c0-0.2,0-0.4,0.1-0.7l1.6-6L143.7,109.2   L143.7,109.2z"/>
	<path d="M147.5,114.2h-3v-0.7h3V114.2z"/>
</g>
<g>
	<path class="st3" d="M107.5,62.8c0.7-0.3,1.5-0.7,2.3-1c7.2-2.8,14.1-2.2,20.6,1.7c3,1.8,5.3,4.2,7.2,7.2c0.8,1.3,1.6,2.5,2.4,3.8   c0.8-0.5,1.6-1,2.5-1.6c0.6-0.3,1.2-0.3,1.7,0.1c0.3,0.3,0.4,0.8,0.3,1.3c-0.2,1.5-0.5,3.1-0.8,4.6c-0.3,2.1-0.7,4.2-1.1,6.3   c-0.2,1.1-0.8,1.5-1.9,1.2c-3.5-1-7-2-10.5-3c-0.3-0.1-0.6-0.2-0.9-0.5c-0.5-0.5-0.4-1.5,0.3-1.9c0.8-0.5,1.6-1,2.5-1.6   c0,0,0-0.1,0-0.1c-1-1.6-2-3.3-3.2-4.9c-2.9-3.9-6.7-6.6-11.3-8c-3.3-1-6.7-1.2-10.1-0.7c-1,0.1-1.8-0.4-1.7-1.3   c0-0.2,0.2-0.5,0.3-0.8C106.5,63.4,107,63.1,107.5,62.8z"/>
	<path class="st3" d="M100,84.9c0-0.4,0-0.8,0.1-1.3c0.6-3.5,1.2-6.9,1.8-10.4c0.2-1.1,0.8-1.5,1.9-1.2c3.5,1,7.1,2,10.6,3   c0.6,0.1,1,0.5,1.1,1.1c0.1,0.6-0.2,1-0.7,1.3c-0.2,0.1-0.4,0.3-0.7,0.4c-0.5,0.3-1.1,0.7-1.6,1c0,0,0,0.1,0,0.1   c1.5,2.4,2.9,4.9,4.9,6.9c5.4,5.5,11.8,7.7,19.4,6.7c0.2,0,0.4,0,0.6-0.1c0.6,0,1.1,0.3,1.3,0.8c0.2,0.6,0,1.2-0.5,1.5   c-1.4,0.9-2.9,1.7-4.5,2.2c-8.7,2.8-16.5,1.1-23.3-5c-1.3-1.2-2.4-2.6-3.3-4c-0.8-1.3-1.7-2.7-2.6-4.1c-0.2,0.1-0.4,0.3-0.6,0.4   c-0.5,0.3-1,0.6-1.5,1c-0.6,0.5-1.3,0.5-2,0.1C100.3,85.3,100.2,85.1,100,84.9z"/>
</g>
</svg>