<svg width="21" height="20" viewBox="0 0 26 25" fill="none" xmlns="http://www.w3.org/2000/svg">
	<g clip-path="url(#clip0_736_13)">
		<path d="M13 25C20.2042 25 26 19.4271 26 12.5C26 5.57288 20.2042 0 13 0C5.79579 0 0 5.57288 0 12.5C0 19.4271 5.79579 25 13 25Z" fill="#2775CA" />
		<path d="M16.5752 14.479C16.5752 12.6561 15.4377 12.0311 13.1627 11.7708C11.5377 11.5624 11.2127 11.1458 11.2127 10.4165C11.2127 9.68725 11.7544 9.21863 12.8377 9.21863C13.8127 9.21863 14.3544 9.53113 14.6252 10.3124C14.6794 10.4686 14.8419 10.5728 15.0044 10.5728H15.871C16.0877 10.5728 16.2502 10.4165 16.2502 10.2083V10.1561C16.0335 9.01025 15.0585 8.12488 13.8127 8.02075V6.77075C13.8127 6.56238 13.6502 6.40613 13.3794 6.354H12.5669C12.3502 6.354 12.1877 6.51025 12.1335 6.77075V7.96863C10.5085 8.177 9.47939 9.21863 9.47939 10.5208C9.47939 12.2395 10.5627 12.9165 12.8377 13.177C14.3544 13.4374 14.8419 13.7499 14.8419 14.5833C14.8419 15.4166 14.0835 15.9895 13.0544 15.9895C11.646 15.9895 11.1585 15.4165 10.996 14.6353C10.9419 14.427 10.7794 14.3228 10.6169 14.3228H9.69597C9.47939 14.3228 9.31689 14.479 9.31689 14.6874V14.7395C9.53347 16.0415 10.4002 16.979 12.1877 17.2395V18.4895C12.1877 18.6978 12.3502 18.854 12.621 18.9061H13.4335C13.6502 18.9061 13.8127 18.7499 13.8669 18.4895V17.2395C15.4919 16.979 16.5752 15.8853 16.5752 14.479Z" fill="white" />
		<path d="M10.2376 19.948C6.01258 18.4897 3.84587 13.9585 5.41679 9.948C6.22929 7.7605 8.01679 6.09387 10.2376 5.31262C10.4543 5.2085 10.5626 5.05225 10.5626 4.79175V4.06262C10.5626 3.85425 10.4543 3.698 10.2376 3.646C10.1834 3.646 10.0751 3.646 10.0209 3.698C4.87508 5.2605 2.05837 10.521 3.68337 15.4689C4.65837 18.3855 6.98758 20.6251 10.0209 21.5626C10.2376 21.6667 10.4543 21.5626 10.5084 21.3542C10.5626 21.3022 10.5626 21.2501 10.5626 21.146V20.4167C10.5626 20.2605 10.4001 20.0522 10.2376 19.948ZM15.9793 3.698C15.7626 3.59387 15.5459 3.698 15.4918 3.90637C15.4376 3.9585 15.4376 4.0105 15.4376 4.11475V4.84387C15.4376 5.05225 15.6001 5.2605 15.7626 5.36475C19.9876 6.823 22.1543 11.3542 20.5834 15.3647C19.7709 17.5522 17.9834 19.2189 15.7626 20.0001C15.5459 20.1042 15.4376 20.2605 15.4376 20.521V21.2501C15.4376 21.4585 15.5459 21.6147 15.7626 21.6667C15.8168 21.6667 15.9251 21.6667 15.9793 21.6147C21.1251 20.0522 23.9418 14.7917 22.3168 9.84387C21.3418 6.87512 18.9584 4.6355 15.9793 3.698Z" fill="white" />
	</g>
	<defs>
		<clipPath id="clip0_736_13">
			<rect width="26" height="25" fill="white" />
		</clipPath>
	</defs>
</svg>
