<svg width="21" height="20" viewBox="0 0 21 20" fill="none"
  xmlns="http://www.w3.org/2000/svg">
  <g clip-path="url(#clip0_206_405)">
    <path d="M10.25 20C15.9109 20 20.5 15.5228 20.5 10C20.5 4.47715 15.9109 0 10.25 0C4.58908 0 0 4.47715 0 10C0 15.5228 4.58908 20 10.25 20Z" fill="#26A17B" />
    <path fill-rule="evenodd" clip-rule="evenodd" d="M11.4813 10.8644V10.8631C11.4108 10.8681 11.0476 10.8894 10.2372 10.8894C9.59017 10.8894 9.13468 10.8706 8.97453 10.8631V10.865C6.48378 10.7581 4.62468 10.335 4.62468 9.82875C4.62468 9.32312 6.48378 8.9 8.97453 8.79125V10.4437C9.13725 10.455 9.60362 10.4819 10.2481 10.4819C11.0213 10.4819 11.4089 10.4506 11.4813 10.4444V8.7925C13.9669 8.90062 15.8215 9.32375 15.8215 9.82875C15.8215 10.335 13.9669 10.7569 11.4813 10.8644ZM11.4813 8.62063V7.14187H14.9496V4.88687H5.50618V7.14187H8.97453V8.62C6.15578 8.74625 4.03595 9.29125 4.03595 9.94375C4.03595 10.5962 6.15578 11.1406 8.97453 11.2675V16.0062H11.4813V11.2662C14.2956 11.14 16.4103 10.5956 16.4103 9.94375C16.4103 9.29187 14.2956 8.7475 11.4813 8.62063Z" fill="white" />
  </g>
  <defs>
    <clipPath id="clip0_206_405">
      <rect width="20.5" height="20" fill="white" />
    </clipPath>
  </defs>
</svg>