<svg width="32" height="24" viewBox="0 0 32 24" fill="none" xmlns="http://www.w3.org/2000/svg">
<path d="M19.9681 9.8833V14.5028C19.9681 15.7819 20.999 16.8221 22.266 16.8221H30.19V20.8959C30.19 22.5111 28.8873 23.8256 27.2862 23.8256H2.90383C1.30266 23.8256 0 22.5111 0 20.8959V3.49017C0 1.87503 1.30266 0.560547 2.90383 0.560547H27.2862C28.8873 0.560547 30.19 1.87503 30.19 3.49017V7.56456H22.266C20.999 7.56456 19.9681 8.60479 19.9681 9.8833Z" fill="#FFDDBE"/>
<path d="M30.8155 8.68945H22.2661C21.6133 8.68945 21.082 9.22502 21.082 9.88423V14.5037C21.082 15.1629 21.6133 15.6991 22.2661 15.6991H30.8155C31.4687 15.6991 32.0001 15.1629 32.0001 14.5037V9.88423C32.0001 9.22502 31.4687 8.68945 30.8155 8.68945ZM24.0922 13.4377C23.4122 13.4377 22.8592 12.8796 22.8592 12.194C22.8592 11.5084 23.4122 10.9503 24.0922 10.9503C24.7717 10.9503 25.3247 11.5084 25.3247 12.194C25.3247 12.8796 24.7717 13.4377 24.0922 13.4377Z" fill="#FFC999"/>
</svg>
